<svg version="1.1" id="Layer_1" xmlns="http://www.w3.org/2000/svg" xmlns:xlink="http://www.w3.org/1999/xlink" x="0px" y="0px"
	 width="100%" viewBox="0 0 225 225" enable-background="new 0 0 225 225" xml:space="preserve">
<path fill="#1A76D2" opacity="1.000000" stroke="none" 
	d="
M1.000000,154.000000 
	C1.000000,103.077026 1.000000,52.154060 1.000000,1.000000 
	C46.353966,1.000000 91.708328,1.000000 137.530304,1.415525 
	C138.088394,5.275698 137.637558,8.226214 133.912674,10.021898 
	C132.325806,10.786888 131.452072,13.031190 130.254272,14.603235 
	C132.005219,15.401246 133.707123,16.720354 135.517151,16.890759 
	C139.508499,17.266520 143.611435,16.954819 144.984894,22.431393 
	C144.904999,23.736221 144.837769,24.605282 144.514603,25.232395 
	C141.460739,19.723263 137.169388,17.760975 131.169189,18.004608 
	C121.868027,18.382275 112.538612,18.200367 103.224037,18.062197 
	C97.334496,17.974833 93.465897,20.671682 91.093384,25.877199 
	C88.750771,31.017103 86.398399,36.152573 84.043816,41.287003 
	C72.626495,66.183731 61.206993,91.079453 49.579559,115.754112 
	C44.464043,111.567635 44.099068,115.964638 42.613579,119.082100 
	C37.527420,120.060349 32.591511,120.520180 31.377272,126.655159 
	C31.233366,127.382248 29.499599,127.754997 28.556219,128.373459 
	C27.351952,129.162979 25.504461,129.815811 25.159130,130.913071 
	C24.113209,134.236328 21.229918,135.257751 19.082264,137.294357 
	C15.810289,140.397141 13.513701,144.538422 9.198663,146.672714 
	C8.756889,146.891205 8.492083,147.833008 8.459607,148.455566 
	C8.204355,153.348694 5.203842,154.465225 1.000000,154.000000 
z"/>
<path fill="#1A76D2" opacity="1.000000" stroke="none" 
	d="
M226.000000,88.000000 
	C226.000000,101.020897 226.000000,114.041786 225.608521,127.618584 
	C216.764450,127.195923 216.531036,138.073303 209.462891,139.168564 
	C209.216629,139.206741 209.327545,140.516724 208.966919,141.011642 
	C205.762756,145.408768 200.632004,148.006790 197.859314,152.832840 
	C197.754013,153.016129 197.144470,152.849701 196.914825,153.030396 
	C192.650391,156.385910 189.949814,161.393555 185.146210,164.190689 
	C185.052582,164.245193 185.136383,164.561981 185.039703,164.659973 
	C183.586105,166.133240 182.135986,167.610931 180.646027,169.047089 
	C176.852676,172.703491 172.607681,176.279465 169.565094,180.227081 
	C166.108154,184.712296 165.800903,191.558487 159.147507,193.912933 
	C158.278381,194.220490 157.814407,195.693466 157.179626,196.637985 
	C156.195282,198.102676 155.483536,199.870773 154.203857,200.995575 
	C149.204346,205.389893 143.610321,209.023911 139.621368,214.644073 
	C137.562759,217.544556 133.939163,219.292206 131.270599,221.822235 
	C130.176727,222.859360 129.737198,224.586670 129.000000,226.000000 
	C121.645744,226.000000 114.291496,226.000000 106.504639,225.619324 
	C107.257698,223.205475 108.072906,220.788193 109.703087,219.215912 
	C113.569534,215.486725 117.839424,212.177719 121.895477,208.640656 
	C122.352386,208.242188 122.370018,207.371872 122.787300,206.890060 
	C124.005051,205.483978 125.270721,204.110092 126.615715,202.826385 
	C127.789139,201.706421 129.153946,200.787247 130.330170,199.669846 
	C132.132080,197.958069 133.894958,196.198578 135.578110,194.370651 
	C136.781784,193.063446 137.825790,191.609406 138.944626,190.223801 
	C139.744568,189.233093 140.435303,188.118027 141.373550,187.281372 
	C145.524536,183.579819 149.993927,180.200394 153.873825,176.239777 
	C157.632141,172.403259 160.166611,167.080017 164.421463,164.096863 
	C168.880768,160.970367 169.185333,157.406433 169.459549,153.014740 
	C173.916443,152.714264 177.914413,152.419785 182.287186,152.072983 
	C191.336807,150.566025 194.860031,139.198257 191.625519,131.415344 
	C189.983887,127.465240 188.339066,123.516472 186.769623,119.242050 
	C188.251175,118.469208 189.658829,118.021408 189.864182,117.956078 
	C192.748932,115.592186 195.017059,113.722931 197.298508,111.870064 
	C198.054153,111.256363 198.968857,110.794106 199.597717,110.075981 
	C203.196289,105.966492 206.677521,101.752922 210.332108,97.694931 
	C211.053696,96.893707 212.420471,96.710617 213.376801,96.073097 
	C214.297623,95.459259 215.576828,94.766998 215.828308,93.866234 
	C217.332321,88.478874 221.347717,87.754410 226.000000,88.000000 
z"/>
<path fill="#1A76D2" opacity="1.000000" stroke="none" 
	d="
M202.000000,1.000000 
	C209.935806,1.000000 217.871613,1.000000 226.000000,1.000000 
	C226.000000,11.020074 226.000000,21.041380 225.651001,31.613819 
	C223.719894,33.287853 221.915710,34.200256 220.606293,35.581669 
	C218.503098,37.800507 216.883179,40.477318 214.780777,42.697060 
	C210.202026,47.531376 205.750793,52.554726 200.701797,56.861084 
	C190.490845,65.570160 184.139984,78.815018 169.877563,82.747444 
	C165.405685,72.712898 161.162048,62.963890 156.940613,52.854820 
	C156.410080,49.721733 155.857300,46.948696 155.252335,43.913807 
	C156.729660,45.199562 158.204361,46.483036 160.320023,48.324356 
	C160.320023,45.561161 160.320023,43.703674 160.320023,41.905670 
	C170.438080,42.464417 176.378952,34.913277 183.354507,29.945604 
	C187.853241,26.741804 191.214188,21.749584 194.566055,17.178314 
	C198.102600,12.355189 202.589294,7.789790 202.000000,1.000000 
z"/>
<path fill="#1A76D2" opacity="1.000000" stroke="none" 
	d="
M226.000000,146.000000 
	C226.000000,154.020905 226.000000,162.041809 225.697449,170.698959 
	C223.140228,173.745087 220.405914,175.867813 218.748947,178.635529 
	C216.540939,182.323715 214.124756,185.191086 209.755661,186.219971 
	C208.990753,186.400085 208.700363,188.180679 207.977814,189.043793 
	C206.573792,190.720993 205.037415,192.289673 203.520172,193.869049 
	C202.338074,195.099533 201.019241,196.207520 199.915085,197.501297 
	C198.974823,198.602982 198.521317,200.484772 197.389679,200.995026 
	C192.618698,203.146210 191.598282,209.983978 185.500870,210.352081 
	C185.271225,210.365967 184.914932,210.802780 184.875854,211.079041 
	C184.146210,216.237381 179.531784,217.843216 176.284927,220.763123 
	C174.811615,222.088043 174.072281,224.229141 173.000000,226.000000 
	C164.312439,226.000000 155.624863,226.000000 146.502533,225.634216 
	C146.804886,223.624420 147.172150,221.629379 148.342316,220.396317 
	C153.809586,214.635162 159.449722,209.034653 165.119019,203.469345 
	C174.328323,194.428970 183.708252,185.560532 192.830765,176.434189 
	C201.953278,167.307800 210.769058,157.874252 219.923096,148.780487 
	C221.405991,147.307343 223.947708,146.899994 226.000000,146.000000 
z"/>
<path fill="#1A76D2" opacity="1.000000" stroke="none" 
	d="
M40.000000,226.000000 
	C27.105526,226.000000 14.211052,226.000000 1.000000,226.000000 
	C1.000000,220.985229 1.000000,215.963821 1.416261,210.469879 
	C3.760320,209.642105 6.701145,209.942169 7.431911,208.812531 
	C9.937270,204.939713 13.006020,201.906693 16.836077,199.441315 
	C19.083115,197.994904 21.024122,196.075180 23.262108,194.612061 
	C26.060860,192.782349 30.732090,191.789078 31.554321,189.391815 
	C33.195229,184.607651 35.773376,183.670639 40.040749,183.959595 
	C43.014702,184.160980 46.013500,183.995499 49.469700,183.994278 
	C57.626087,183.995834 65.313972,183.996994 73.001427,184.434753 
	C73.282707,189.075134 72.490471,191.633774 67.822304,194.052048 
	C64.230408,195.912796 62.304871,201.460297 57.684948,203.418045 
	C57.467251,203.510315 57.485897,204.059143 57.282299,204.300873 
	C53.823349,208.407578 51.097775,214.174835 46.677498,216.156494 
	C41.528606,218.464828 40.988529,221.912720 40.000000,226.000000 
z"/>
<path fill="#1A76D2" opacity="1.000000" stroke="none" 
	d="
M226.000000,145.532059 
	C223.947708,146.899994 221.405991,147.307343 219.923096,148.780487 
	C210.769058,157.874252 201.953278,167.307800 192.830765,176.434189 
	C183.708252,185.560532 174.328323,194.428970 165.119019,203.469345 
	C159.449722,209.034653 153.809586,214.635162 148.342316,220.396317 
	C147.172150,221.629379 146.804886,223.624420 146.033875,225.634216 
	C140.645065,226.000000 135.290146,226.000000 129.467606,226.000000 
	C129.737198,224.586670 130.176727,222.859360 131.270599,221.822235 
	C133.939163,219.292206 137.562759,217.544556 139.621368,214.644073 
	C143.610321,209.023911 149.204346,205.389893 154.203857,200.995575 
	C155.483536,199.870773 156.195282,198.102676 157.179626,196.637985 
	C157.814407,195.693466 158.278381,194.220490 159.147507,193.912933 
	C165.800903,191.558487 166.108154,184.712296 169.565094,180.227081 
	C172.607681,176.279465 176.852676,172.703491 180.646027,169.047089 
	C182.135986,167.610931 183.586105,166.133240 185.039703,164.659973 
	C185.136383,164.561981 185.052582,164.245193 185.146210,164.190689 
	C189.949814,161.393555 192.650391,156.385910 196.914825,153.030396 
	C197.144470,152.849701 197.754013,153.016129 197.859314,152.832840 
	C200.632004,148.006790 205.762756,145.408768 208.966919,141.011642 
	C209.327545,140.516724 209.216629,139.206741 209.462891,139.168564 
	C216.531036,138.073303 216.764450,127.195923 225.608521,128.087250 
	C226.000000,133.688034 226.000000,139.376083 226.000000,145.532059 
z"/>
<path fill="#1A76D2" opacity="1.000000" stroke="none" 
	d="
M201.531342,1.000000 
	C202.589294,7.789790 198.102600,12.355189 194.566055,17.178314 
	C191.214188,21.749584 187.853241,26.741804 183.354507,29.945604 
	C176.378952,34.913277 170.438080,42.464417 160.320023,41.905670 
	C160.320023,43.703674 160.320023,45.561161 160.320023,48.324356 
	C158.204361,46.483036 156.729660,45.199562 155.252335,43.913807 
	C155.857300,46.948696 156.410080,49.721733 156.631439,52.662056 
	C152.456848,43.711006 148.613693,34.592674 144.770538,25.474340 
	C144.837769,24.605282 144.904999,23.736221 145.328171,22.352627 
	C149.560272,18.621202 153.383606,15.337761 157.328033,12.206852 
	C160.992920,9.297829 162.674301,5.666320 162.000000,1.000000 
	C175.020889,1.000000 188.041794,1.000000 201.531342,1.000000 
z"/>
<path fill="#1A76D2" opacity="1.000000" stroke="none" 
	d="
M173.468658,226.000000 
	C174.072281,224.229141 174.811615,222.088043 176.284927,220.763123 
	C179.531784,217.843216 184.146210,216.237381 184.875854,211.079041 
	C184.914932,210.802780 185.271225,210.365967 185.500870,210.352081 
	C191.598282,209.983978 192.618698,203.146210 197.389679,200.995026 
	C198.521317,200.484772 198.974823,198.602982 199.915085,197.501297 
	C201.019241,196.207520 202.338074,195.099533 203.520172,193.869049 
	C205.037415,192.289673 206.573792,190.720993 207.977814,189.043793 
	C208.700363,188.180679 208.990753,186.400085 209.755661,186.219971 
	C214.124756,185.191086 216.540939,182.323715 218.748947,178.635529 
	C220.405914,175.867813 223.140228,173.745087 225.697449,171.167603 
	C226.000000,189.258759 226.000000,207.517502 226.000000,226.000000 
	C208.646408,226.000000 191.291870,226.000000 173.468658,226.000000 
z"/>
<path fill="#1A76D2" opacity="1.000000" stroke="none" 
	d="
M93.000000,226.000000 
	C85.979050,226.000000 78.958107,226.000000 71.504150,225.621002 
	C71.793159,217.008774 79.460892,214.365280 84.063568,209.291748 
	C87.476868,205.529236 91.516457,202.340073 95.206230,198.821228 
	C97.368774,196.758865 99.511078,194.650558 101.429771,192.367355 
	C102.425972,191.181900 103.588501,189.524292 103.493187,188.162796 
	C103.303574,185.454208 104.034210,183.981064 106.747772,183.741409 
	C109.594902,183.489960 112.451080,183.341003 116.267990,183.081726 
	C115.389267,179.396393 123.056511,177.611237 119.907166,171.514297 
	C120.294113,170.476105 120.677460,169.753571 121.472473,169.022385 
	C126.139343,169.281982 128.929520,167.921387 129.177246,163.077087 
	C129.228241,162.079773 130.503265,160.411026 131.360962,160.310974 
	C136.070511,159.761688 136.135651,156.534485 136.479004,153.049881 
	C142.298813,153.035995 147.651855,153.031906 153.000000,153.427826 
	C153.150726,157.622635 151.710556,160.155853 147.783768,161.206421 
	C146.728775,161.488693 145.939697,162.883057 145.099564,163.829926 
	C141.450302,167.942902 137.832138,172.083450 134.181717,176.195389 
	C133.980362,176.422195 133.602615,176.553864 133.286209,176.607605 
	C130.094650,177.149689 129.149231,179.249237 128.781418,182.239258 
	C128.224289,186.768372 128.088058,191.702530 122.025169,193.033508 
	C121.137444,193.228378 120.732697,195.206802 119.904671,196.192047 
	C118.788506,197.520157 117.547325,198.765549 116.230469,199.895752 
	C115.134537,200.836319 113.616486,201.354630 112.693985,202.415329 
	C109.175766,206.460602 106.585754,212.071228 102.211586,214.418610 
	C96.961449,217.236069 95.643394,221.848373 93.000000,226.000000 
z"/>
<path fill="#1A76D2" opacity="1.000000" stroke="none" 
	d="
M170.105789,83.032974 
	C184.139984,78.815018 190.490845,65.570160 200.701797,56.861084 
	C205.750793,52.554726 210.202026,47.531376 214.780777,42.697060 
	C216.883179,40.477318 218.503098,37.800507 220.606293,35.581669 
	C221.915710,34.200256 223.719894,33.287853 225.651001,32.082478 
	C226.000000,40.354233 226.000000,48.708466 225.643250,57.567570 
	C223.398438,59.340988 221.287384,60.374245 219.659393,61.917202 
	C210.750198,70.361092 201.560043,78.564308 193.286865,87.601326 
	C188.749298,92.557823 180.199692,96.525932 184.740814,105.904282 
	C183.655685,106.205063 182.827881,106.600533 181.690155,107.020615 
	C181.173553,107.061211 180.966888,107.077202 180.465088,106.894058 
	C179.946396,105.237381 180.042358,103.631302 179.445496,102.347275 
	C176.431396,95.863083 173.236969,89.462738 170.105789,83.032974 
M175.524765,84.496719 
	C175.524765,84.496719 175.487396,84.509346 175.524765,84.496719 
z"/>
<path fill="#1A76D2" opacity="1.000000" stroke="none" 
	d="
M49.001198,183.993896 
	C46.013500,183.995499 43.014702,184.160980 40.040749,183.959595 
	C35.773376,183.670639 33.195229,184.607651 31.554321,189.391815 
	C30.732090,191.789078 26.060860,192.782349 23.262108,194.612061 
	C21.024122,196.075180 19.083115,197.994904 16.836077,199.441315 
	C13.006020,201.906693 9.937270,204.939713 7.431911,208.812531 
	C6.701145,209.942169 3.760320,209.642105 1.416261,209.998688 
	C1.000000,199.312439 1.000000,188.624878 1.391968,177.455750 
	C8.645150,175.580017 10.374434,168.106796 15.857345,165.074493 
	C15.953781,165.021149 15.884882,164.718094 15.980632,164.606918 
	C17.415314,162.941162 18.590767,160.848495 20.375597,159.736206 
	C22.982561,158.111511 26.029581,157.192947 29.238722,155.824234 
	C29.544176,156.980484 29.821726,158.031113 30.079388,159.058395 
	C30.059502,159.035065 30.120409,159.026657 29.933779,159.247864 
	C29.507593,159.989838 29.268038,160.510605 28.990200,161.402161 
	C23.647631,174.452530 26.090141,177.971970 40.056190,177.986282 
	C61.712498,178.008469 83.368729,178.098404 105.010063,178.384552 
	C104.995132,178.609497 104.961006,179.059067 104.521591,179.044678 
	C101.729103,179.045258 99.376015,179.060211 96.577316,179.075043 
	C93.753578,179.087341 91.375465,179.099762 88.529152,179.095245 
	C79.724464,179.380249 71.387978,179.682220 62.585106,179.989899 
	C57.747688,180.659790 53.376663,181.323975 49.004097,182.322495 
	C49.002102,183.102524 49.001648,183.548203 49.001198,183.993896 
M40.135937,179.997910 
	C37.883236,180.156433 35.630531,180.314972 33.377831,180.473511 
	C33.535950,181.144150 33.694073,181.814789 33.852192,182.485413 
	C36.237068,181.656754 38.621948,180.828079 41.078114,179.956772 
	C41.078114,179.956772 41.000820,179.993225 40.135937,179.997910 
z"/>
<path fill="#1A76D2" opacity="1.000000" stroke="none" 
	d="
M93.463181,226.000000 
	C95.643394,221.848373 96.961449,217.236069 102.211586,214.418610 
	C106.585754,212.071228 109.175766,206.460602 112.693985,202.415329 
	C113.616486,201.354630 115.134537,200.836319 116.230469,199.895752 
	C117.547325,198.765549 118.788506,197.520157 119.904671,196.192047 
	C120.732697,195.206802 121.137444,193.228378 122.025169,193.033508 
	C128.088058,191.702530 128.224289,186.768372 128.781418,182.239258 
	C129.149231,179.249237 130.094650,177.149689 133.286209,176.607605 
	C133.602615,176.553864 133.980362,176.422195 134.181717,176.195389 
	C137.832138,172.083450 141.450302,167.942902 145.099564,163.829926 
	C145.939697,162.883057 146.728775,161.488693 147.783768,161.206421 
	C151.710556,160.155853 153.150726,157.622635 153.466293,153.420517 
	C158.958527,153.015701 163.979568,153.018219 169.000610,153.020721 
	C169.185333,157.406433 168.880768,160.970367 164.421463,164.096863 
	C160.166611,167.080017 157.632141,172.403259 153.873825,176.239777 
	C149.993927,180.200394 145.524536,183.579819 141.373550,187.281372 
	C140.435303,188.118027 139.744568,189.233093 138.944626,190.223801 
	C137.825790,191.609406 136.781784,193.063446 135.578110,194.370651 
	C133.894958,196.198578 132.132080,197.958069 130.330170,199.669846 
	C129.153946,200.787247 127.789139,201.706421 126.615715,202.826385 
	C125.270721,204.110092 124.005051,205.483978 122.787300,206.890060 
	C122.370018,207.371872 122.352386,208.242188 121.895477,208.640656 
	C117.839424,212.177719 113.569534,215.486725 109.703087,219.215912 
	C108.072906,220.788193 107.257698,223.205475 106.036018,225.619324 
	C101.975456,226.000000 97.950912,226.000000 93.463181,226.000000 
z"/>
<path fill="#1A76D2" opacity="1.000000" stroke="none" 
	d="
M40.468651,226.000000 
	C40.988529,221.912720 41.528606,218.464828 46.677498,216.156494 
	C51.097775,214.174835 53.823349,208.407578 57.282299,204.300873 
	C57.485897,204.059143 57.467251,203.510315 57.684948,203.418045 
	C62.304871,201.460297 64.230408,195.912796 67.822304,194.052048 
	C72.490471,191.633774 73.282707,189.075134 73.468071,184.434814 
	C78.955788,183.998077 83.976440,183.997864 89.415863,183.998215 
	C91.652512,184.462448 93.470383,184.926132 95.288254,185.389801 
	C94.656212,187.686295 94.640526,190.486099 93.262604,192.173523 
	C90.476318,195.585678 88.968452,200.346695 83.985092,201.781906 
	C83.179756,202.013824 82.839325,203.678421 82.167587,204.595505 
	C80.958534,206.246124 79.713181,207.876068 78.391602,209.437271 
	C73.802963,214.857971 66.519646,218.095886 65.000000,226.000000 
	C56.979099,226.000000 48.958202,226.000000 40.468651,226.000000 
z"/>
<path fill="#1A76D2" opacity="1.000000" stroke="none" 
	d="
M30.099274,159.081726 
	C29.821726,158.031113 29.544176,156.980484 29.238722,155.824234 
	C26.029581,157.192947 22.982561,158.111511 20.375597,159.736206 
	C18.590767,160.848495 17.415314,162.941162 15.980632,164.606918 
	C15.884882,164.718094 15.953781,165.021149 15.857345,165.074493 
	C10.374434,168.106796 8.645150,175.580017 1.391968,176.987091 
	C1.000000,169.645752 1.000000,162.291504 1.000000,154.468628 
	C5.203842,154.465225 8.204355,153.348694 8.459607,148.455566 
	C8.492083,147.833008 8.756889,146.891205 9.198663,146.672714 
	C13.513701,144.538422 15.810289,140.397141 19.082264,137.294357 
	C21.229918,135.257751 24.113209,134.236328 25.159130,130.913071 
	C25.504461,129.815811 27.351952,129.162979 28.556219,128.373459 
	C29.499599,127.754997 31.233366,127.382248 31.377272,126.655159 
	C32.591511,120.520180 37.527420,120.060349 42.703064,119.320084 
	C43.789944,120.638336 44.408077,121.803802 45.017845,123.360184 
	C45.029167,124.532028 45.048855,125.312958 45.053741,126.064735 
	C45.038937,126.035591 45.103985,126.029007 45.011898,126.127182 
	C44.757931,126.454292 44.717346,126.705765 44.749245,127.324547 
	C39.833374,138.140121 34.966324,148.610916 30.099274,159.081726 
z"/>
<path fill="#1A76D2" opacity="1.000000" stroke="none" 
	d="
M182.000092,106.996002 
	C182.827881,106.600533 183.655685,106.205063 185.128326,105.867241 
	C189.602829,105.488335 192.770996,104.420677 193.878571,99.964828 
	C194.176453,98.766487 196.375824,98.089554 197.608582,97.060928 
	C198.805588,96.062111 199.943359,94.975441 201.000702,93.829170 
	C204.732971,89.782944 208.387360,85.664261 212.161835,81.658371 
	C212.667282,81.121918 213.804901,81.230408 214.448959,80.763329 
	C215.341553,80.115990 216.535492,79.318062 216.746307,78.390488 
	C217.933258,73.167900 221.769943,72.814514 226.000000,73.000000 
	C226.000000,77.689255 226.000000,82.378510 226.000000,87.533882 
	C221.347717,87.754410 217.332321,88.478874 215.828308,93.866234 
	C215.576828,94.766998 214.297623,95.459259 213.376801,96.073097 
	C212.420471,96.710617 211.053696,96.893707 210.332108,97.694931 
	C206.677521,101.752922 203.196289,105.966492 199.597717,110.075981 
	C198.968857,110.794106 198.054153,111.256363 197.298508,111.870064 
	C195.017059,113.722931 192.748932,115.592186 189.864182,117.956078 
	C189.658829,118.021408 188.251175,118.469208 186.503082,118.987610 
	C185.069061,116.142929 183.975494,113.227646 182.874756,109.961823 
	C182.578445,108.739525 182.289261,107.867760 182.000092,106.996002 
z"/>
<path fill="#1A76D2" opacity="1.000000" stroke="none" 
	d="
M226.000000,72.533882 
	C221.769943,72.814514 217.933258,73.167900 216.746307,78.390488 
	C216.535492,79.318062 215.341553,80.115990 214.448959,80.763329 
	C213.804901,81.230408 212.667282,81.121918 212.161835,81.658371 
	C208.387360,85.664261 204.732971,89.782944 201.000702,93.829170 
	C199.943359,94.975441 198.805588,96.062111 197.608582,97.060928 
	C196.375824,98.089554 194.176453,98.766487 193.878571,99.964828 
	C192.770996,104.420677 189.602829,105.488335 185.385681,105.961929 
	C180.199692,96.525932 188.749298,92.557823 193.286865,87.601326 
	C201.560043,78.564308 210.750198,70.361092 219.659393,61.917202 
	C221.287384,60.374245 223.398438,59.340988 225.643250,58.036221 
	C226.000000,62.689255 226.000000,67.378510 226.000000,72.533882 
z"/>
<path fill="#1A76D2" opacity="1.000000" stroke="none" 
	d="
M161.531372,1.000000 
	C162.674301,5.666320 160.992920,9.297829 157.328033,12.206852 
	C153.383606,15.337761 149.560272,18.621202 145.340820,21.916859 
	C143.611435,16.954819 139.508499,17.266520 135.517151,16.890759 
	C133.707123,16.720354 132.005219,15.401246 130.254272,14.603235 
	C131.452072,13.031190 132.325806,10.786888 133.912674,10.021898 
	C137.637558,8.226214 138.088394,5.275698 137.998962,1.415525 
	C145.687576,1.000000 153.375168,1.000000 161.531372,1.000000 
z"/>
<path fill="#1A76D2" opacity="1.000000" stroke="none" 
	d="
M65.428467,226.000000 
	C66.519646,218.095886 73.802963,214.857971 78.391602,209.437271 
	C79.713181,207.876068 80.958534,206.246124 82.167587,204.595505 
	C82.839325,203.678421 83.179756,202.013824 83.985092,201.781906 
	C88.968452,200.346695 90.476318,195.585678 93.262604,192.173523 
	C94.640526,190.486099 94.656212,187.686295 95.288254,185.389801 
	C93.470383,184.926132 91.652512,184.462448 89.300392,183.723846 
	C88.169350,182.962692 87.572556,182.476486 87.128136,181.810120 
	C87.490746,181.395416 87.716843,181.177307 88.430107,180.982971 
	C94.262199,180.659805 99.622978,180.329300 104.979980,179.763809 
	C104.976204,179.528839 104.961006,179.059067 104.961006,179.059067 
	C104.961006,179.059067 104.995132,178.609497 105.428268,178.298615 
	C107.572861,178.026688 109.284309,178.065643 111.094818,178.311829 
	C111.775040,178.293015 112.356209,178.066956 113.170555,177.601364 
	C115.570351,175.517883 117.736969,173.673935 119.903580,171.829987 
	C123.056511,177.611237 115.389267,179.396393 116.267990,183.081726 
	C112.451080,183.341003 109.594902,183.489960 106.747772,183.741409 
	C104.034210,183.981064 103.303574,185.454208 103.493187,188.162796 
	C103.588501,189.524292 102.425972,191.181900 101.429771,192.367355 
	C99.511078,194.650558 97.368774,196.758865 95.206230,198.821228 
	C91.516457,202.340073 87.476868,205.529236 84.063568,209.291748 
	C79.460892,214.365280 71.793159,217.008774 71.035568,225.621002 
	C69.285645,226.000000 67.571281,226.000000 65.428467,226.000000 
z"/>
<path fill="#F4F9F9" opacity="1.000000" stroke="none" 
	d="
M119.907173,171.514313 
	C117.736969,173.673935 115.570351,175.517883 112.840164,177.580933 
	C111.849655,177.901566 111.422714,178.003082 110.995766,178.104614 
	C109.284309,178.065643 107.572861,178.026688 105.443199,178.073669 
	C83.368729,178.098404 61.712498,178.008469 40.056190,177.986282 
	C26.090141,177.971970 23.647631,174.452530 29.266624,161.268097 
	C29.761024,160.184402 29.940718,159.605530 30.120409,159.026657 
	C30.120409,159.026657 30.059502,159.035065 30.079388,159.058395 
	C34.966324,148.610916 39.833374,138.140121 44.886154,127.106354 
	C45.082581,126.371933 45.093285,126.200470 45.103985,126.029007 
	C45.103985,126.029007 45.038937,126.035591 45.315048,125.855797 
	C45.926250,124.844986 46.261337,124.013969 46.776833,122.977768 
	C47.090839,122.246368 47.224434,121.720169 47.570946,121.026634 
	C47.918648,120.344276 48.053425,119.829247 48.431026,119.110214 
	C49.045322,117.929321 49.416790,116.952431 49.788261,115.975533 
	C61.206993,91.079453 72.626495,66.183731 84.043816,41.287003 
	C86.398399,36.152573 88.750771,31.017103 91.093384,25.877199 
	C93.465897,20.671682 97.334496,17.974833 103.224037,18.062197 
	C112.538612,18.200367 121.868027,18.382275 131.169189,18.004608 
	C137.169388,17.760975 141.460739,19.723263 144.514603,25.232393 
	C148.613693,34.592674 152.456848,43.711006 156.609207,53.022110 
	C161.162048,62.963890 165.405685,72.712898 169.877563,82.747444 
	C173.236969,89.462738 176.431396,95.863083 179.445496,102.347275 
	C180.042358,103.631302 179.946396,105.237381 180.541351,107.225143 
	C181.569138,108.607681 182.225525,109.460022 182.881912,110.312363 
	C183.975494,113.227646 185.069061,116.142929 186.429169,119.312668 
	C188.339066,123.516472 189.983887,127.465240 191.625519,131.415344 
	C194.860031,139.198257 191.336807,150.566025 181.834045,151.988007 
	C164.698746,151.953278 148.391281,151.926727 132.084229,151.994919 
	C130.759949,152.000443 129.438400,152.654373 127.891983,153.284271 
	C125.465851,158.718018 123.263329,163.874527 121.060806,169.031036 
	C120.677460,169.753571 120.294113,170.476105 119.907173,171.514313 
M176.230331,118.308502 
	C175.850815,117.821625 175.471283,117.334747 175.082748,116.905632 
	C175.082748,116.905632 175.121384,116.860130 175.098038,116.119141 
	C170.123871,104.820511 165.149704,93.521881 159.669434,81.073639 
	C151.294159,100.258217 143.516190,118.074600 135.274826,136.351852 
	C135.161850,137.211655 135.048874,138.071442 134.246460,139.272629 
	C133.791443,140.395004 133.336441,141.517365 132.709412,143.064056 
	C148.654221,143.064056 163.907532,143.075790 179.160675,143.028824 
	C179.911133,143.026505 180.660019,142.511688 182.119461,142.021072 
	C182.551208,139.288101 183.931137,136.268906 183.211121,133.883591 
	C181.844452,129.356033 179.275101,125.191483 177.127747,120.266106 
	C176.806076,119.756020 176.484406,119.245934 176.120911,118.910469 
	C176.120911,118.910469 176.295853,118.950874 176.230331,118.308502 
M151.082718,78.049690 
	C151.082718,78.049690 151.113831,78.146202 151.725647,77.738731 
	C152.904251,74.523262 156.322418,71.636948 153.209549,67.761482 
	C153.209549,67.761482 153.205383,67.727562 153.121979,67.010017 
	C147.721420,54.674057 142.320847,42.338097 136.836182,29.242842 
	C135.119827,28.563793 133.416824,27.339806 131.684891,27.297407 
	C122.884697,27.081976 114.069321,27.385460 105.275177,27.067228 
	C100.827538,26.906281 98.346161,28.519970 97.050720,33.355656 
	C92.929283,42.828133 88.919014,52.350922 84.660072,61.761169 
	C78.437660,75.509796 72.036728,89.177620 65.842369,102.858360 
	C65.842369,102.858360 65.818787,102.728226 65.351326,103.130402 
	C65.166893,103.705002 64.982460,104.279594 64.256973,105.307617 
	C54.695538,126.356659 45.134098,147.405701 35.363396,168.915421 
	C41.467342,168.915421 46.738037,168.915421 52.745987,169.073090 
	C53.494446,169.020615 54.242905,168.968140 55.898838,169.069122 
	C59.268097,169.016357 62.637356,168.963593 66.931198,169.070267 
	C80.398056,169.089157 93.866875,169.222549 107.329430,168.990875 
	C109.135361,168.959824 111.873329,167.519119 112.555756,166.001129 
	C125.419899,137.386185 138.039062,108.661102 151.010040,79.357437 
	C151.066544,78.911453 151.123032,78.465462 151.082718,78.049690 
z"/>
<path fill="#1A76D2" opacity="1.000000" stroke="none" 
	d="
M47.358028,121.193962 
	C47.224434,121.720169 47.090839,122.246368 46.384155,122.924149 
	C45.549450,123.040237 45.287830,123.004745 45.026211,122.969261 
	C44.408077,121.803802 43.789944,120.638336 43.082325,119.234894 
	C44.099068,115.964638 44.464043,111.567635 49.579559,115.754112 
	C49.416790,116.952431 49.045322,117.929321 48.231636,118.998871 
	C47.269867,119.265373 46.750309,119.439209 46.230751,119.613037 
	C46.606510,120.140015 46.982269,120.666985 47.358028,121.193962 
z"/>
<path fill="#1A76D2" opacity="1.000000" stroke="none" 
	d="
M128.115585,153.007019 
	C129.438400,152.654373 130.759949,152.000443 132.084229,151.994919 
	C148.391281,151.926727 164.698746,151.953278 181.459229,152.040344 
	C177.914413,152.419785 173.916443,152.714264 169.459549,153.014740 
	C163.979568,153.018219 158.958527,153.015701 153.471191,153.020508 
	C147.651855,153.031906 142.298813,153.035995 136.038971,153.036926 
	C132.793304,153.024841 130.454453,153.015930 128.115585,153.007019 
z"/>
<path fill="#1A76D2" opacity="1.000000" stroke="none" 
	d="
M86.975769,181.990295 
	C87.572556,182.476486 88.169350,182.962692 88.881615,183.723297 
	C83.976440,183.997864 78.955788,183.998077 73.468498,183.998230 
	C65.313972,183.996994 57.626087,183.995834 49.469700,183.994278 
	C49.001648,183.548203 49.002102,183.102524 49.472046,182.323853 
	C57.976082,181.668427 66.010628,181.345963 74.443634,181.019180 
	C75.911690,180.999985 76.981270,180.985107 78.360855,180.975677 
	C79.084160,180.990128 79.497459,180.999130 80.089035,181.184540 
	C80.524475,181.573944 80.781647,181.786972 81.463287,181.997803 
	C83.583763,181.993835 85.279762,181.992065 86.975769,181.990295 
z"/>
<path fill="#1A76D2" opacity="1.000000" stroke="none" 
	d="
M127.891983,153.284256 
	C130.454453,153.015930 132.793304,153.024841 135.572205,153.046722 
	C136.135651,156.534485 136.070511,159.761688 131.360962,160.310974 
	C130.503265,160.411026 129.228241,162.079773 129.177246,163.077087 
	C128.929520,167.921387 126.139343,169.281982 121.472466,169.022385 
	C123.263329,163.874527 125.465851,158.718018 127.891983,153.284256 
M126.504417,160.524429 
	C126.504417,160.524429 126.491837,160.486237 126.504417,160.524429 
z"/>
<path fill="#1A76D2" opacity="1.000000" stroke="none" 
	d="
M182.874756,109.961823 
	C182.225525,109.460022 181.569138,108.607681 180.836487,107.424263 
	C180.966888,107.077202 181.173553,107.061211 181.690155,107.020615 
	C182.289261,107.867760 182.578445,108.739525 182.874756,109.961823 
z"/>
<path fill="#1A76D2" opacity="1.000000" stroke="none" 
	d="
M175.506073,84.503036 
	C175.487396,84.509346 175.524765,84.496719 175.506073,84.503036 
z"/>
<path fill="#1A76D2" opacity="1.000000" stroke="none" 
	d="
M74.045166,181.023499 
	C66.010628,181.345963 57.976082,181.668427 49.473591,181.989532 
	C53.376663,181.323975 57.747688,180.659790 63.037224,179.992615 
	C67.304054,179.994614 70.652374,179.999573 74.009735,180.259369 
	C74.027580,180.683960 74.036369,180.853729 74.045166,181.023499 
z"/>
<path fill="#1A76D2" opacity="1.000000" stroke="none" 
	d="
M74.000694,180.004532 
	C70.652374,179.999573 67.304054,179.994614 63.503616,179.986908 
	C71.387978,179.682220 79.724464,179.380249 88.399712,179.326294 
	C88.478577,180.041412 88.218681,180.508514 87.958786,180.975616 
	C87.716843,181.177307 87.490746,181.395416 87.128128,181.810120 
	C85.279762,181.992065 83.583763,181.993835 81.292030,181.814056 
	C80.434448,181.424377 80.172607,181.216263 79.910767,181.008133 
	C79.497459,180.999130 79.084160,180.990128 78.056000,180.799011 
	C76.294334,180.412796 75.147514,180.208664 74.000694,180.004532 
z"/>
<path fill="#1A76D2" opacity="1.000000" stroke="none" 
	d="
M88.430107,180.982971 
	C88.218681,180.508514 88.478577,180.041412 88.867912,179.343262 
	C91.375465,179.099762 93.753578,179.087341 96.922363,179.253143 
	C100.136612,179.620514 102.560181,179.809647 104.983749,179.998779 
	C99.622978,180.329300 94.262199,180.659805 88.430107,180.982971 
z"/>
<path fill="#1A76D2" opacity="1.000000" stroke="none" 
	d="
M41.006828,179.999420 
	C38.621948,180.828079 36.237068,181.656754 33.852192,182.485413 
	C33.694073,181.814789 33.535950,181.144150 33.377831,180.473511 
	C35.630531,180.314972 37.883236,180.156433 40.568081,179.998856 
	C41.000225,179.999802 41.006828,179.999420 41.006828,179.999420 
z"/>
<path fill="#1A76D2" opacity="1.000000" stroke="none" 
	d="
M104.979980,179.763824 
	C102.560181,179.809647 100.136612,179.620514 97.367989,179.253281 
	C99.376015,179.060211 101.729103,179.045258 104.521591,179.044678 
	C104.961006,179.059067 104.976204,179.528839 104.979980,179.763824 
z"/>
<path fill="#1A76D2" opacity="1.000000" stroke="none" 
	d="
M29.933779,159.247864 
	C29.940718,159.605530 29.761024,160.184402 29.304909,160.897339 
	C29.268038,160.510605 29.507593,159.989838 29.933779,159.247864 
z"/>
<path fill="#1A76D2" opacity="1.000000" stroke="none" 
	d="
M41.000523,179.996521 
	C41.000820,179.993225 41.078114,179.956772 41.042473,179.978088 
	C41.006828,179.999420 41.000225,179.999802 41.000523,179.996521 
z"/>
<path fill="#1A76D2" opacity="1.000000" stroke="none" 
	d="
M45.017845,123.360184 
	C45.287830,123.004745 45.549450,123.040237 46.203743,123.129333 
	C46.261337,124.013969 45.926250,124.844986 45.329853,125.884941 
	C45.048855,125.312958 45.029167,124.532028 45.017845,123.360184 
z"/>
<path fill="#1A76D2" opacity="1.000000" stroke="none" 
	d="
M45.011898,126.127182 
	C45.093285,126.200470 45.082581,126.371933 44.934967,126.761581 
	C44.717346,126.705765 44.757931,126.454292 45.011898,126.127182 
z"/>
<path fill="#1A76D2" opacity="1.000000" stroke="none" 
	d="
M111.094818,178.311844 
	C111.422714,178.003082 111.849655,177.901566 112.606995,177.820465 
	C112.356209,178.066956 111.775040,178.293015 111.094818,178.311844 
z"/>
<path fill="#1A76D2" opacity="1.000000" stroke="none" 
	d="
M52.008728,168.915421 
	C46.738037,168.915421 41.467342,168.915421 35.363396,168.915421 
	C45.134098,147.405701 54.695538,126.356659 64.724701,104.859100 
	C65.401215,103.849800 65.610001,103.289017 65.818787,102.728226 
	C65.818787,102.728226 65.842369,102.858360 66.145775,102.768402 
	C68.830704,101.607986 72.101723,101.189629 73.444687,99.357788 
	C80.448227,89.804695 91.710938,84.463165 97.923279,74.212379 
	C98.158501,73.824265 98.784279,73.693840 99.107323,73.334724 
	C102.440056,69.629791 106.475960,66.316055 108.882835,62.079208 
	C112.063988,56.479385 115.432732,51.388912 121.351875,47.920441 
	C125.041794,46.529549 128.727249,45.587334 129.000305,41.000607 
	C129.000000,41.000000 129.001221,41.000763 129.439087,41.000603 
	C132.126816,40.374928 134.376709,39.749413 136.626587,39.123898 
	C135.784836,36.648792 134.954483,34.169720 134.095505,31.700603 
	C133.771088,30.768093 133.380554,29.858599 133.352707,28.996410 
	C134.763596,29.370188 135.841949,29.686163 136.920288,30.002138 
	C142.320847,42.338097 147.721420,54.674057 152.833771,67.452576 
	C150.251862,68.358299 147.490875,68.170944 145.758499,69.415451 
	C141.733963,72.306625 135.713333,73.053291 134.430359,79.237175 
	C134.319504,79.771538 132.608810,79.861763 131.789993,80.389168 
	C130.707962,81.086121 129.058212,81.890312 128.894577,82.858353 
	C128.052429,87.840721 124.150391,88.320915 120.409828,89.129478 
	C117.135674,89.837212 113.857819,90.267029 113.286453,94.702888 
	C113.146408,95.790123 111.379364,97.293694 110.172874,97.497803 
	C106.838661,98.061867 106.043419,100.217232 105.443398,103.012497 
	C104.520798,107.310555 104.212517,112.081543 98.381721,113.190308 
	C97.482887,113.361214 97.008888,115.313942 96.154762,116.280327 
	C94.928505,117.667740 93.578140,118.955910 92.196304,120.192032 
	C91.116859,121.157654 89.769966,121.848892 88.787521,122.893127 
	C86.845970,124.956779 84.672211,126.957085 83.322540,129.387848 
	C81.030838,133.515198 78.704750,137.366272 73.952461,139.032318 
	C73.620308,139.148773 73.354507,139.867050 73.311455,140.329102 
	C73.016029,143.499451 71.148201,144.870834 68.159813,145.431671 
	C67.201530,145.611496 65.780922,146.761551 65.691093,147.589218 
	C65.004021,153.920059 54.998432,153.479950 56.028572,160.989243 
	C56.057384,161.199280 54.968224,161.639786 54.357861,161.848526 
	C48.144543,163.973465 48.142059,163.966202 52.008728,168.915421 
z"/>
<path fill="#1A76D2" opacity="1.000000" stroke="none" 
	d="
M52.377357,168.994263 
	C48.142059,163.966202 48.144543,163.973465 54.357861,161.848526 
	C54.968224,161.639786 56.057384,161.199280 56.028572,160.989243 
	C54.998432,153.479950 65.004021,153.920059 65.691093,147.589218 
	C65.780922,146.761551 67.201530,145.611496 68.159813,145.431671 
	C71.148201,144.870834 73.016029,143.499451 73.311455,140.329102 
	C73.354507,139.867050 73.620308,139.148773 73.952461,139.032318 
	C78.704750,137.366272 81.030838,133.515198 83.322540,129.387848 
	C84.672211,126.957085 86.845970,124.956779 88.787521,122.893127 
	C89.769966,121.848892 91.116859,121.157654 92.196304,120.192032 
	C93.578140,118.955910 94.928505,117.667740 96.154762,116.280327 
	C97.008888,115.313942 97.482887,113.361214 98.381721,113.190308 
	C104.212517,112.081543 104.520798,107.310555 105.443398,103.012497 
	C106.043419,100.217232 106.838661,98.061867 110.172874,97.497803 
	C111.379364,97.293694 113.146408,95.790123 113.286453,94.702888 
	C113.857819,90.267029 117.135674,89.837212 120.409828,89.129478 
	C124.150391,88.320915 128.052429,87.840721 128.894577,82.858353 
	C129.058212,81.890312 130.707962,81.086121 131.789993,80.389168 
	C132.608810,79.861763 134.319504,79.771538 134.430359,79.237175 
	C135.713333,73.053291 141.733963,72.306625 145.758499,69.415451 
	C147.490875,68.170944 150.251862,68.358299 152.875458,67.811356 
	C153.205383,67.727562 153.209549,67.761482 153.154968,68.194992 
	C152.438202,71.801064 151.776016,74.973633 151.113831,78.146202 
	C151.113831,78.146202 151.082718,78.049690 150.974991,78.192657 
	C150.814621,78.876755 150.761993,79.417885 150.709351,79.959007 
	C138.039062,108.661102 125.419899,137.386185 112.555756,166.001129 
	C111.873329,167.519119 109.135361,168.959824 107.329430,168.990875 
	C93.866875,169.222549 80.398056,169.089157 66.262115,168.680298 
	C61.941231,166.499680 58.356365,165.843887 54.991364,168.915649 
	C54.242905,168.968140 53.494446,169.020615 52.377357,168.994263 
z"/>
<path fill="#1A76D2" opacity="1.000000" stroke="none" 
	d="
M121.004433,48.002834 
	C115.432732,51.388912 112.063988,56.479385 108.882835,62.079208 
	C106.475960,66.316055 102.440056,69.629791 99.107323,73.334724 
	C98.784279,73.693840 98.158501,73.824265 97.923279,74.212379 
	C91.710938,84.463165 80.448227,89.804695 73.444687,99.357788 
	C72.101723,101.189629 68.830704,101.607986 66.080536,102.779167 
	C72.036728,89.177620 78.437660,75.509796 84.660072,61.761169 
	C88.919014,52.350922 92.929283,42.828133 97.565262,32.923428 
	C100.051399,31.298609 102.022987,30.106018 104.039886,29.072174 
	C104.393036,29.122530 104.700890,29.014139 105.406639,28.886578 
	C106.866417,28.885046 107.928284,28.902681 109.127213,29.207767 
	C110.513054,29.303469 111.761833,29.111719 113.446411,28.902248 
	C115.917107,28.896824 117.952003,28.909122 120.174316,29.246334 
	C123.877167,30.242538 127.392609,30.913828 130.142166,31.438868 
	C129.746216,34.757164 129.373718,37.878963 129.001221,41.000763 
	C129.001221,41.000763 129.000000,41.000000 128.645920,41.079212 
	C124.628098,42.125378 121.313309,43.463875 121.004433,48.002834 
z"/>
<path fill="#1A76D2" opacity="1.000000" stroke="none" 
	d="
M135.738220,135.890976 
	C143.516190,118.074600 151.294159,100.258217 159.669434,81.073639 
	C165.149704,93.521881 170.123871,104.820511 174.790329,116.421753 
	C171.008087,116.997681 166.762650,116.114738 164.231201,117.802536 
	C159.926605,120.672523 155.537643,124.594437 153.334213,129.120941 
	C150.911194,134.098511 142.313232,131.688599 142.982040,139.048065 
	C141.305145,139.087265 139.489090,139.532883 138.000229,139.022995 
	C137.005371,138.682281 136.475937,136.982544 135.738220,135.890976 
z"/>
<path fill="#1A76D2" opacity="1.000000" stroke="none" 
	d="
M135.506531,136.121414 
	C136.475937,136.982544 137.005371,138.682281 138.000229,139.022995 
	C139.489090,139.532883 141.305145,139.087265 142.982040,139.048065 
	C142.313232,131.688599 150.911194,134.098511 153.334213,129.120941 
	C155.537643,124.594437 159.926605,120.672523 164.231201,117.802536 
	C166.762650,116.114738 171.008087,116.997681 174.802002,116.792252 
	C175.121384,116.860130 175.082748,116.905632 175.167938,117.174744 
	C175.600693,117.946190 175.948273,118.448532 176.295853,118.950874 
	C176.295853,118.950874 176.120911,118.910469 176.201630,119.125206 
	C176.590027,119.852013 176.897675,120.364082 177.205322,120.876152 
	C179.275101,125.191483 181.844452,129.356033 183.211121,133.883591 
	C183.931137,136.268906 182.551208,139.288101 181.276535,142.070953 
	C167.192413,142.076462 153.951126,142.050415 140.710144,141.970947 
	C138.315475,141.956573 135.474335,142.568939 134.935883,138.931244 
	C135.048874,138.071442 135.161850,137.211655 135.506531,136.121414 
z"/>
<path fill="#1A76D2" opacity="1.000000" stroke="none" 
	d="
M108.990158,28.920319 
	C107.928284,28.902681 106.866417,28.885046 105.152931,28.882404 
	C104.332405,28.902744 104.163490,28.908085 103.994576,28.913427 
	C102.022987,30.106018 100.051399,31.298609 97.753281,32.626427 
	C98.346161,28.519970 100.827538,26.906281 105.275177,27.067228 
	C114.069321,27.385460 122.884697,27.081976 131.684891,27.297407 
	C133.416824,27.339806 135.119827,28.563793 136.878235,29.622490 
	C135.841949,29.686163 134.763596,29.370188 132.887756,28.977648 
	C128.055801,28.907862 124.021355,28.914640 119.986908,28.921421 
	C117.952003,28.909122 115.917107,28.896824 113.044121,28.892750 
	C111.134079,28.907423 110.062119,28.913872 108.990158,28.920319 
z"/>
<path fill="#1A76D2" opacity="1.000000" stroke="none" 
	d="
M134.591187,139.101929 
	C135.474335,142.568939 138.315475,141.956573 140.710144,141.970947 
	C153.951126,142.050415 167.192413,142.076462 180.921631,142.178162 
	C180.660019,142.511688 179.911133,143.026505 179.160675,143.028824 
	C163.907532,143.075790 148.654221,143.064056 132.709412,143.064056 
	C133.336441,141.517365 133.791443,140.395004 134.591187,139.101929 
z"/>
<path fill="#1A76D2" opacity="1.000000" stroke="none" 
	d="
M55.445099,168.992401 
	C58.356365,165.843887 61.941231,166.499680 65.799828,168.600586 
	C62.637356,168.963593 59.268097,169.016357 55.445099,168.992401 
z"/>
<path fill="#1A76D2" opacity="1.000000" stroke="none" 
	d="
M151.419739,77.942467 
	C151.776016,74.973633 152.438202,71.801064 153.144287,68.208054 
	C156.322418,71.636948 152.904251,74.523262 151.419739,77.942467 
z"/>
<path fill="#1A76D2" opacity="1.000000" stroke="none" 
	d="
M47.570946,121.026634 
	C46.982269,120.666985 46.606510,120.140015 46.230751,119.613037 
	C46.750309,119.439209 47.269867,119.265373 47.988815,119.202873 
	C48.053425,119.829247 47.918648,120.344276 47.570946,121.026634 
z"/>
<path fill="#1A76D2" opacity="1.000000" stroke="none" 
	d="
M150.859695,79.658218 
	C150.761993,79.417885 150.814621,78.876755 151.023392,78.177551 
	C151.123032,78.465462 151.066544,78.911453 150.859695,79.658218 
z"/>
<path fill="#1A76D2" opacity="1.000000" stroke="none" 
	d="
M177.166534,120.571129 
	C176.897675,120.364082 176.590027,119.852013 176.222549,119.037903 
	C176.484406,119.245934 176.806076,119.756020 177.166534,120.571129 
z"/>
<path fill="#1A76D2" opacity="1.000000" stroke="none" 
	d="
M65.585052,102.929314 
	C65.610001,103.289017 65.401215,103.849800 64.995232,104.632393 
	C64.982460,104.279594 65.166893,103.705002 65.585052,102.929314 
z"/>
<path fill="#1A76D2" opacity="1.000000" stroke="none" 
	d="
M176.263092,118.629684 
	C175.948273,118.448532 175.600693,117.946190 175.172440,117.145859 
	C175.471283,117.334747 175.850815,117.821625 176.263092,118.629684 
z"/>
<path fill="#1A76D2" opacity="1.000000" stroke="none" 
	d="
M74.009735,180.259369 
	C75.147514,180.208664 76.294334,180.412796 77.746002,180.793579 
	C76.981270,180.985107 75.911690,180.999985 74.443634,181.019180 
	C74.036369,180.853729 74.027580,180.683960 74.009735,180.259369 
z"/>
<path fill="#1A76D2" opacity="1.000000" stroke="none" 
	d="
M80.089035,181.184540 
	C80.172607,181.216263 80.434448,181.424377 80.867554,181.816238 
	C80.781647,181.786972 80.524475,181.573944 80.089035,181.184540 
z"/>
<path fill="#1A76D2" opacity="1.000000" stroke="none" 
	d="
M126.498123,160.505341 
	C126.491837,160.486237 126.504417,160.524429 126.498123,160.505341 
z"/>
<path fill="#1A76D2" opacity="1.000000" stroke="none" 
	d="
M120.174316,29.246334 
	C124.021355,28.914640 128.055801,28.907862 132.555206,28.919846 
	C133.380554,29.858599 133.771088,30.768093 134.095505,31.700603 
	C134.954483,34.169720 135.784836,36.648792 136.626587,39.123898 
	C134.376709,39.749413 132.126816,40.374928 129.439087,41.000603 
	C129.373718,37.878963 129.746216,34.757164 130.142166,31.438868 
	C127.392609,30.913828 123.877167,30.242538 120.174316,29.246334 
z"/>
<path fill="#1A76D2" opacity="1.000000" stroke="none" 
	d="
M121.351875,47.920441 
	C121.313309,43.463875 124.628098,42.125378 128.646225,41.079819 
	C128.727249,45.587334 125.041794,46.529549 121.351875,47.920441 
z"/>
<path fill="#1A76D2" opacity="1.000000" stroke="none" 
	d="
M109.127213,29.207767 
	C110.062119,28.913872 111.134079,28.907423 112.608330,28.910473 
	C111.761833,29.111719 110.513054,29.303469 109.127213,29.207767 
z"/>
<path fill="#1A76D2" opacity="1.000000" stroke="none" 
	d="
M104.039886,29.072174 
	C104.163490,28.908085 104.332405,28.902744 104.755028,28.901575 
	C104.700890,29.014139 104.393036,29.122530 104.039886,29.072174 
z"/>
</svg>