<?xml version="1.0" encoding="UTF-8"?>
<svg version="1.1" viewBox="0 0 1600 1600" width="60" height="60" xmlns="http://www.w3.org/2000/svg">
<path transform="translate(315 -1)" d="m0 0c1.02 0.01 2.04 0.03 3.09 0.04 5.91 0.28 9.89 0.9 14.4 5.02 1.36 1.64 2.72 3.29 4.06 4.94 1.2 1.08 2.41 2.13 3.64 3.17 4.29 3.72 8.3 7.66 12.3 11.7 0.72 0.72 1.44 1.44 2.17 2.18 2.26 2.27 4.52 4.55 6.78 6.83 2.99 3.02 5.99 6.03 8.99 9.05 0.69 0.69 1.37 1.39 2.08 2.1 0.63 0.64 1.27 1.28 1.92 1.94 0.56 0.56 1.12 1.12 1.69 1.7 1.42 1.44 1.42 1.44 3.44 2.33v2c0.56 0.23 1.12 0.47 1.7 0.71 2.89 1.62 4.87 3.62 7.21 5.98 0.47 0.48 0.94 0.95 1.43 1.44 1.56 1.57 3.11 3.14 4.67 4.71 1.08 1.1 2.17 2.19 3.25 3.28 2.86 2.87 5.71 5.74 8.56 8.62 4.56 4.6 9.13 9.2 13.7 13.8 1.59 1.61 3.18 3.21 4.77 4.82 0.98 0.99 1.96 1.97 2.94 2.96 0.85 0.86 1.7 1.72 2.58 2.6 2.21 2.22 2.21 2.22 5.19 4.09v2c0.59 0.26 1.18 0.53 1.79 0.8 2.3 1.25 3.79 2.54 5.62 4.39 0.64 0.65 1.29 1.3 1.95 1.97 0.68 0.69 1.37 1.39 2.08 2.11 1.07 1.08 1.07 1.08 2.16 2.19 2.29 2.3 4.56 4.61 6.84 6.92 2.27 2.3 4.55 4.6 6.83 6.89 1.41 1.43 2.83 2.86 4.24 4.3 3.35 3.39 6.74 6.48 10.5 9.43 1.7 1.65 3.35 3.31 5 5 1.49 1.5 2.99 3 4.48 4.5 0.86 0.85 1.71 1.71 2.59 2.6 3.38 3.38 6.76 6.77 10.1 10.2 2.56 2.56 5.11 5.12 7.66 7.69 2.49 2.5 4.98 4.99 7.47 7.48 1.4 1.4 2.79 2.8 4.18 4.2 4.37 4.37 8.81 8.58 13.5 12.6 3.84 3.4 7.4 7.08 11 10.7 0.82 0.83 1.65 1.66 2.5 2.52 2.62 2.63 5.23 5.26 7.85 7.9 3.46 3.48 6.93 6.97 10.4 10.5 0.79 0.8 1.59 1.6 2.41 2.43 0.73 0.74 1.47 1.48 2.22 2.24 0.97 0.98 0.97 0.98 1.96 1.97 1.57 1.61 1.57 1.61 3.63 2.52v2c0.58 0.25 1.16 0.5 1.75 0.76 2.55 1.4 4.24 2.99 6.28 5.06 0.78 0.78 1.57 1.57 2.37 2.38 0.84 0.85 1.67 1.69 2.53 2.57 0.87 0.87 1.74 1.75 2.63 2.65 2.31 2.32 4.61 4.64 6.91 6.97 3.23 3.27 6.46 6.53 9.7 9.79 1.72 1.73 3.44 3.47 5.16 5.21 4.07 4.11 8.19 7.95 12.7 11.6 1.69 1.64 3.36 3.31 5 5 1.26 1.27 2.52 2.53 3.78 3.79 1.05 1.06 1.05 1.06 2.12 2.14 3.18 3.18 6.35 6.37 9.53 9.55l5.01 5.04c2.43 2.43 4.85 4.86 7.28 7.29 0.74 0.75 1.48 1.49 2.24 2.26 3 3 5.97 5.94 9.25 8.63 2.79 2.3 5.27 4.71 7.79 7.3 1.37 1.37 2.73 2.75 4.1 4.12l2.34 2.34c3.48 3.49 6.96 6.98 10.4 10.5 1.84 1.84 3.67 3.69 5.51 5.53 2.65 2.67 5.31 5.33 7.96 7.99 0.83 0.83 1.65 1.65 2.49 2.51 0.77 0.76 1.53 1.52 2.32 2.31 0.67 0.68 1.34 1.35 2.03 2.04 1.91 1.87 1.91 1.87 4.81 3.69v2c0.58 0.25 1.15 0.5 1.74 0.76 2.57 1.41 4.33 3.03 6.42 5.09 0.8 0.79 1.61 1.58 2.44 2.4 0.87 0.86 1.73 1.71 2.62 2.6 0.9 0.88 1.79 1.77 2.71 2.68 1.9 1.88 3.79 3.76 5.67 5.64 2.4 2.4 4.82 4.78 7.24 7.16 2.33 2.28 4.63 4.59 6.94 6.89 0.87 0.85 1.73 1.69 2.62 2.56 6.8 6.85 11.2 13.3 11.2 23.2-0.39 11.4-6.73 18.2-14.6 26-1.19 1.04-2.38 2.06-3.58 3.09-4.76 4.14-9.19 8.57-13.6 13-1.28 1.28-1.28 1.28-2.57 2.58-2.68 2.7-5.36 5.39-8.04 8.09-3.55 3.57-7.09 7.14-10.6 10.7-0.82 0.82-1.63 1.64-2.47 2.49-0.75 0.75-1.51 1.51-2.28 2.29-0.67 0.67-1.33 1.34-2.01 2.03-1.79 1.67-1.79 1.67-4.79 3.67 0.56 3.59 1.7 4.94 4.5 7.19 4.16 3.43 7.79 7.21 11.4 11.2 1.89 1.81 1.89 1.81 3.93 1.62 3.09-1.44 5.95-3.19 8.84-5 21.4-13 50.4-30.4 76.3-26 3.93 0.98 7.74 2.23 11.6 3.56 1.05 0.36 2.09 0.72 3.17 1.09 16.9 5.91 34.8 13.2 49 24.2 2.86 2.37 2.86 2.37 5.21 1.98 2.46-1.02 3.78-2.29 5.62-4.22 0.66-0.67 1.31-1.35 1.99-2.04 0.67-0.71 1.34-1.41 2.04-2.14 1.34-1.4 2.69-2.8 4.04-4.19 0.59-0.63 1.18-1.25 1.79-1.89 1.54-1.36 1.54-1.36 3.54-1.36l-1-6c-0.99-0.33-1.98-0.66-3-1v-2c-0.57-0.25-1.15-0.5-1.74-0.76-2.57-1.41-4.28-3.03-6.35-5.12-0.79-0.8-1.59-1.6-2.41-2.42-1.27-1.29-1.27-1.29-2.58-2.62-0.88-0.89-1.77-1.78-2.68-2.7-2.35-2.37-4.7-4.74-7.05-7.12-3.29-3.32-6.59-6.65-9.88-9.96-1.76-1.77-3.51-3.54-5.25-5.31-4.34-4.37-8.74-8.58-13.4-12.6-5.26-4.68-8.99-11.5-9.86-18.4-0.48-8.57 2.42-15.2 8.01-21.6 2.01-2.22 4.03-4.36 6.24-6.38h2l1-3c1.56-1.53 1.56-1.53 3.54-3.17 4.52-3.83 8.68-7.93 12.8-12.1 0.77-0.78 1.54-1.55 2.33-2.34l7.29-7.35 9.63-9.69c1.08-1.09 1.08-1.09 2.18-2.21 3.29-3.3 6.61-6.51 10.1-9.55 4.63-3.99 8.92-8.29 13.2-12.6 1.27-1.27 1.27-1.27 2.56-2.57 2.68-2.68 5.35-5.36 8.02-8.05 1.81-1.81 3.62-3.62 5.43-5.44 3.97-3.98 7.94-7.97 11.9-12l1.91-1.91c0.7-0.74 1.4-1.48 2.12-2.25 1.88-1.75 1.88-1.75 3.88-1.75l1-3c1.56-1.53 1.56-1.53 3.54-3.17 4.52-3.83 8.68-7.93 12.8-12.1 0.77-0.78 1.54-1.55 2.33-2.34l7.29-7.35 9.63-9.69c1.08-1.09 1.08-1.09 2.18-2.21 3.3-3.31 6.62-6.52 10.2-9.57 4.5-3.88 8.66-8.07 12.8-12.3 1.65-1.66 3.3-3.32 4.95-4.99 2.58-2.6 5.15-5.2 7.72-7.81 2.5-2.53 5.01-5.05 7.51-7.57 0.78-0.79 1.55-1.58 2.35-2.39 1.07-1.08 1.07-1.08 2.17-2.17 0.62-0.64 1.25-1.28 1.9-1.93 1.59-1.36 1.59-1.36 3.59-1.36l1-3c1.52-1.49 1.52-1.49 3.47-3.1 4.94-4.19 9.45-8.73 14-13.3l5.37-5.4 8.37-8.46c2.71-2.74 5.42-5.47 8.14-8.21 0.84-0.85 1.68-1.7 2.54-2.58 0.78-0.78 1.55-1.56 2.35-2.36 0.68-0.69 1.36-1.38 2.07-2.09 1.7-1.47 1.7-1.47 3.7-1.47l1-3c1.55-1.52 1.55-1.52 3.53-3.15 4.6-3.91 8.83-8.11 13.1-12.4 1.6-1.62 3.21-3.23 4.81-4.85 2.51-2.53 5.01-5.06 7.51-7.59 2.43-2.46 4.87-4.92 7.3-7.37 1.13-1.15 1.13-1.15 2.28-2.32 0.7-0.7 1.39-1.4 2.11-2.12 0.91-0.92 0.91-0.92 1.85-1.87 1.55-1.32 1.55-1.32 3.55-1.32l1-3c1.54-1.52 1.54-1.52 3.51-3.14 4.68-3.97 8.99-8.25 13.3-12.6 0.81-0.82 1.62-1.63 2.46-2.48 2.58-2.58 5.15-5.18 7.72-7.77 3.4-3.42 6.79-6.84 10.2-10.2 0.76-0.77 1.53-1.55 2.32-2.34 3.38-3.4 6.78-6.71 10.4-9.84 4.91-4.23 9.42-8.83 14-13.4l4.2-4.23c3.42-3.44 6.83-6.89 10.2-10.3 1.93-1.95 3.86-3.9 5.79-5.84 1.82-1.83 3.63-3.66 5.44-5.5 0.81-0.81 1.63-1.63 2.47-2.48 0.71-0.72 1.43-1.45 2.17-2.19 1.78-1.55 1.78-1.55 3.78-1.55l1-3c1.46-1.43 1.46-1.43 3.37-2.99 5.59-4.74 10.7-9.98 15.8-15.2 1.93-1.95 3.86-3.9 5.79-5.85 0.85-0.86 1.69-1.72 2.56-2.6 6.63-6.36 6.63-6.36 9.46-6.36v-2h24v2c0.69 0.2 1.38 0.39 2.09 0.59 3.98 1.93 6.52 4.73 9.54 7.91 1.13 1.18 2.27 2.36 3.41 3.53 0.5 0.52 1 1.04 1.51 1.58 1.61 1.62 1.61 1.62 4.45 3.39v2c0.57 0.24 1.14 0.49 1.73 0.74 2.69 1.49 4.5 3.26 6.67 5.45 0.86 0.86 1.72 1.73 2.61 2.62 0.92 0.93 1.85 1.87 2.8 2.83 0.96 0.98 1.93 1.95 2.9 2.92 2.54 2.56 5.08 5.12 7.61 7.68 4.05 4.1 8.11 8.18 12.2 12.3 1.41 1.42 2.82 2.84 4.23 4.27 5.26 5.32 5.26 5.32 10.9 10.2 1.18 0.99 1.18 0.99 2.37 2v2c0.59 0.26 1.17 0.52 1.78 0.79 2.39 1.3 3.94 2.7 5.85 4.63 0.7 0.7 1.39 1.4 2.11 2.12 0.74 0.75 1.48 1.51 2.25 2.28 0.77 0.78 1.55 1.56 2.34 2.37 2.48 2.49 4.95 4.99 7.42 7.5 2.46 2.48 4.92 4.96 7.38 7.44 1.53 1.55 3.06 3.09 4.58 4.64 3.94 3.97 7.97 7.73 12.2 11.4 7.1 6.28 13.7 13.2 20.4 19.8 1.95 1.93 3.9 3.86 5.87 5.78 2.85 2.79 5.68 5.61 8.51 8.42 0.87 0.85 1.74 1.7 2.64 2.58 6.63 6.64 11.1 13.4 11.7 22.9-0.53 13.8-11.3 22.9-20.5 31.9-0.9 0.91-1.8 1.81-2.73 2.74-3.8 3.78-7.62 7.48-11.7 11-4.06 3.53-7.87 7.26-11.6 11.1-0.68 0.68-1.36 1.37-2.06 2.07-2.15 2.16-4.29 4.32-6.44 6.49-2.83 2.86-5.66 5.71-8.5 8.56-0.95 0.97-0.95 0.97-1.92 1.95-3.07 3.08-6.18 6.05-9.48 8.89-4.6 3.98-8.86 8.25-13.1 12.6-0.83 0.84-1.67 1.68-2.53 2.54-2.65 2.66-5.29 5.33-7.94 7.99-3.48 3.51-6.97 7.02-10.5 10.5-0.78 0.8-1.57 1.59-2.38 2.41-3.42 3.44-6.86 6.79-10.5 9.95-4.71 4.05-9.05 8.45-13.4 12.9-1.5 1.52-3.01 3.03-4.52 4.55-4.27 4.3-8.55 8.61-12.8 12.9-2.63 2.65-5.26 5.3-7.89 7.94-1 1.01-2 2.02-2.99 3.02-1.38 1.41-2.77 2.8-4.16 4.2-0.79 0.79-1.58 1.59-2.39 2.41-1.94 1.7-1.94 1.7-3.94 1.7-0.38 0.89-0.38 0.89-0.77 1.8-1.36 2.43-2.72 3.71-4.87 5.47-4.25 3.6-8.17 7.43-12.1 11.4-1.05 1.06-1.05 1.06-2.12 2.14-2.22 2.23-4.44 4.46-6.66 6.7-2.92 2.95-5.85 5.9-8.78 8.84-0.65 0.67-1.31 1.33-1.98 2.02-3.14 3.15-6.32 6.18-9.68 9.08-4.44 3.83-8.54 7.95-12.6 12.1-1.61 1.62-3.21 3.23-4.82 4.85-2.5 2.53-5.01 5.06-7.51 7.59-2.43 2.46-4.86 4.92-7.3 7.37-1.13 1.15-1.13 1.15-2.28 2.32-0.69 0.7-1.39 1.4-2.1 2.12-0.61 0.61-1.22 1.23-1.85 1.87-1.56 1.32-1.56 1.32-3.56 1.32l-1 3c-1.49 1.47-1.49 1.47-3.43 3.06-5.18 4.4-9.91 9.19-14.7 14-0.95 0.95-1.9 1.91-2.85 2.86-3.99 4.02-7.97 8.04-12 12.1-2.45 2.48-4.91 4.95-7.37 7.42-1.38 1.39-2.76 2.79-4.14 4.19-0.83 0.84-1.67 1.68-2.53 2.54-1.1 1.12-1.1 1.12-2.23 2.25-1.82 1.59-1.82 1.59-3.82 1.59l-1 3c-1.56 1.54-1.56 1.54-3.55 3.18-4.44 3.77-8.52 7.8-12.6 11.9-1.51 1.53-3.02 3.05-4.54 4.58-2.36 2.38-4.71 4.77-7.07 7.16-2.29 2.32-4.59 4.63-6.89 6.95-0.7 0.72-1.41 1.44-2.14 2.19-0.66 0.65-1.31 1.31-1.99 1.99-0.57 0.58-1.15 1.17-1.74 1.77-1.48 1.24-1.48 1.24-3.48 1.24v2c-1.45 1.43-1.45 1.43-3.46 3.09-4.62 3.93-8.87 8.13-13.1 12.4-0.79 0.8-1.58 1.59-2.4 2.41-2.5 2.52-5.01 5.04-7.51 7.56-3.3 3.33-6.6 6.65-9.9 9.97-0.75 0.75-1.49 1.5-2.26 2.28-4.05 4.07-8.2 7.94-12.6 11.7-2.34 2.04-4.51 4.22-6.66 6.44-0.84 0.86-1.68 1.72-2.55 2.6-1.72 1.77-3.44 3.54-5.16 5.31-7.69 7.83-14.5 13.3-25.7 14.6-9.17-0.92-15-4.17-21.5-10.5-0.65-0.61-1.29-1.22-1.96-1.85-8.04-7.69-15.9-15.6-23.7-23.5-2.95-2.98-5.91-5.96-8.87-8.93-0.98-1-0.98-1-1.98-2.01-3.84-3.86-7.8-7.53-11.9-11.1-2.38-2.08-4.58-4.28-6.78-6.55-2.93 1.32-4.94 2.72-7.16 5.04-0.57 0.58-1.13 1.16-1.71 1.76s-1.16 1.2-1.75 1.82c-1.16 1.21-2.32 2.41-3.48 3.61-0.51 0.53-1.02 1.06-1.54 1.61-1.36 1.16-1.36 1.16-3.36 1.16 2.1 4.61 4.73 8.32 7.94 12.2 9.5 11.8 17.2 24.6 23.9 38.2 0.41 0.85 0.83 1.71 1.27 2.59 7.68 16.4 12.5 33.9 17.4 51.2 0.95 3.34 1.9 6.68 2.86 10 0.6 2.14 1.21 4.27 1.82 6.4 0.42 1.49 0.42 1.49 0.86 3.01 0.26 0.92 0.51 1.83 0.78 2.78 0.34 1.2 0.34 1.2 0.69 2.43 0.48 2.09 0.48 2.09 0.48 5.09 5.78-2.93 9.76-7.71 14.1-12.4 6.45-6.66 13.6-11.7 23.1-11.9 12.9 0.21 21 9.3 29.5 18 2.89 2.96 5.81 5.79 8.96 8.48 4.51 3.93 8.73 8.12 12.9 12.4l2.41 2.41c2.51 2.53 5.02 5.05 7.52 7.58 3.32 3.34 6.63 6.67 9.95 10 0.74 0.75 1.49 1.51 2.26 2.29 3.32 3.33 6.64 6.54 10.3 9.54 0.98 0.86 1.96 1.72 2.97 2.6v2c0.87 0.38 0.87 0.38 1.75 0.76 2.55 1.4 4.24 2.99 6.28 5.06 0.78 0.78 1.57 1.57 2.37 2.38 0.84 0.85 1.67 1.69 2.53 2.57 0.87 0.87 1.74 1.75 2.63 2.65 2.31 2.32 4.61 4.64 6.91 6.97 3.23 3.27 6.46 6.53 9.7 9.79 1.72 1.73 3.44 3.47 5.16 5.21 3.31 3.34 6.57 6.61 10.2 9.56 0.8 0.68 1.6 1.35 2.42 2.05v2c0.58 0.25 1.15 0.5 1.74 0.75 2.61 1.44 4.35 3.11 6.45 5.22 0.81 0.82 1.63 1.64 2.47 2.48 0.87 0.89 1.74 1.77 2.63 2.68 0.9 0.9 1.8 1.81 2.73 2.74 2.38 2.4 4.77 4.81 7.15 7.22 3.36 3.39 6.72 6.79 10.1 10.2l5.37 5.43c0.81 0.81 1.61 1.63 2.45 2.46 0.71 0.72 1.42 1.44 2.15 2.19 1.68 1.73 1.68 1.73 3.77 2.66v2c0.59 0.26 1.18 0.53 1.79 0.8 2.31 1.25 3.81 2.57 5.66 4.44 0.66 0.66 1.31 1.31 1.98 1.99 0.7 0.71 1.4 1.42 2.12 2.16 0.73 0.73 1.46 1.47 2.21 2.22 2.34 2.36 4.67 4.72 6.99 7.08 2.32 2.34 4.63 4.68 6.95 7.02 1.44 1.45 2.88 2.91 4.31 4.36 3.2 3.23 6.42 6.34 9.86 9.3 5.03 4.33 9.66 9.05 14.3 13.8 0.96 0.97 1.92 1.93 2.88 2.9 3.02 3.03 6.03 6.06 9.05 9.09 3.5 3.53 7.01 7.06 10.5 10.6l4.17 4.2c5.22 5.25 5.22 5.25 10.8 10.1 0.79 0.66 1.57 1.33 2.38 2.01v2c0.58 0.25 1.15 0.5 1.75 0.76 2.57 1.41 4.27 3.02 6.33 5.11l2.4 2.4c0.84 0.86 1.69 1.72 2.56 2.61 1.31 1.32 1.31 1.32 2.65 2.66 2.32 2.34 4.64 4.68 6.95 7.02 3.27 3.31 6.54 6.6 9.81 9.9 1.74 1.75 3.48 3.51 5.22 5.27 0.78 0.79 1.57 1.58 2.38 2.4 0.7 0.7 1.39 1.4 2.1 2.12 1.94 1.93 1.94 1.93 4.85 3.75v2c0.99 0.33 1.98 0.66 3 1v2c0.59 0.26 1.18 0.53 1.79 0.8 2.31 1.25 3.81 2.57 5.66 4.44 0.66 0.66 1.31 1.31 1.98 1.99 0.7 0.71 1.4 1.42 2.12 2.16 0.73 0.73 1.46 1.47 2.21 2.22 2.34 2.36 4.67 4.72 6.99 7.08 2.32 2.34 4.63 4.68 6.95 7.02 1.44 1.45 2.88 2.91 4.31 4.36 3.22 3.25 6.46 6.38 9.92 9.36 4.67 4.03 8.99 8.38 13.3 12.8 0.86 0.86 1.72 1.72 2.6 2.61 3.64 3.65 7.27 7.31 10.9 11 2.66 2.68 5.33 5.36 8 8.04 1.22 1.23 1.22 1.23 2.45 2.48 4.2 4.21 8.47 8.25 13 12.1 4.31 3.75 8.34 7.8 12.4 11.8 1.07 1.06 2.14 2.1 3.22 3.15 8.25 7.96 15.8 16 16.4 28-1.11 15.5-15.5 26.1-25.8 36.3-1.93 1.93-3.86 3.87-5.8 5.8-1.25 1.26-2.5 2.51-3.76 3.76-0.56 0.57-1.13 1.14-1.71 1.72-2.91 2.89-5.88 5.67-8.99 8.34-4.44 3.85-8.57 7.99-12.7 12.2-1.61 1.62-3.21 3.23-4.82 4.85-2.5 2.53-5.01 5.06-7.51 7.59-2.43 2.46-4.86 4.92-7.3 7.37-0.75 0.77-1.5 1.53-2.28 2.32-0.69 0.7-1.39 1.4-2.1 2.12-0.61 0.61-1.22 1.23-1.85 1.87-1.56 1.32-1.56 1.32-3.56 1.32l-1 3c-1.39 1.2-2.78 2.4-4.23 3.52-2.41 2.02-4.56 4.25-6.77 6.48-0.78 0.79-1.56 1.57-2.37 2.39-0.82 0.82-1.64 1.64-2.48 2.49-4.61 4.64-9.22 9.28-13.8 13.9-2.79 2.8-5.57 5.6-8.35 8.4-2.7 2.72-5.4 5.44-8.11 8.15-1.03 1.04-2.06 2.07-3.08 3.11-1.43 1.44-2.87 2.88-4.31 4.31-0.81 0.82-1.63 1.64-2.47 2.49-1.99 1.75-1.99 1.75-3.99 1.75v2c-1.47 1.45-1.47 1.45-3.5 3.12-3.02 2.55-5.79 5.19-8.5 8.07-5.97 6.07-12.7 8.93-21.2 9.12-9.5-0.15-13.8-3.16-20.6-9.52-0.85-0.79-0.85-0.79-1.71-1.59-7.12-6.65-14-13.6-20.8-20.5-2.6-2.63-5.2-5.25-7.8-7.87-0.57-0.58-1.15-1.16-1.74-1.76-2.91-2.93-5.88-5.73-9.01-8.43-4.61-3.98-8.88-8.27-13.2-12.6-0.83-0.84-1.67-1.68-2.53-2.54-3.54-3.56-7.08-7.12-10.6-10.7-2.6-2.62-5.2-5.23-7.8-7.84-0.78-0.8-1.57-1.59-2.38-2.41-3.43-3.45-6.88-6.81-10.6-9.98-5.06-4.36-9.72-9.12-14.4-13.9-0.98-0.98-1.96-1.97-2.94-2.95-3.59-3.61-7.18-7.22-10.8-10.8-3.05-3.06-6.1-6.13-9.15-9.19-1.42-1.42-2.83-2.84-4.24-4.27-4.42-4.43-8.89-8.71-13.6-12.8-3.43-3.03-6.63-6.3-9.85-9.56-0.72-0.72-1.44-1.45-2.19-2.2-3.06-3.08-6.12-6.17-9.18-9.25-2.25-2.27-4.5-4.53-6.75-6.79-0.68-0.69-1.35-1.38-2.05-2.08-3.85-3.87-7.82-7.52-12-11.1-3.13-2.77-6.06-5.74-8.99-8.71-0.63-0.63-1.26-1.27-1.9-1.92-1.98-1.98-3.95-3.97-5.92-5.97-2.62-2.64-5.24-5.28-7.87-7.92-0.9-0.92-0.9-0.92-1.81-1.84-2.94-3.06-2.94-3.06-6.45-5.36 3.22 15.1 6.96 30.1 10.7 45.1 0.88 3.52 1.76 7.04 2.65 10.6 1.28 5.14 2.57 10.3 3.86 15.4 3.1 12.3 6.19 24.7 9.27 37 1.16 4.64 2.32 9.28 3.48 13.9 3.16 12.6 6.32 25.3 9.47 37.9 1.33 5.3 2.65 10.6 3.97 15.9l0.99 3.96c4.03 16.1 8.08 32.2 12.2 48.4 0.39 1.53 0.78 3.05 1.16 4.58 2.25 8.82 2.25 8.82 4.51 17.6 3.32 13 6.65 26 9.71 39.1 0.21 0.86 0.42 1.73 0.63 2.62 2.12 9.24 2.07 16.8-2.91 25.1-5.36 7.74-10.4 9.53-19.7 11.9h-29v134h51l2 1c0.03 7.24 0.05 14.5 0.06 21.7 0 2.47 0.01 4.94 0.02 7.41 0.01 3.53 0.02 7.07 0.02 10.6 0.01 1.11 0.01 2.22 0.02 3.36v3.09 2.74c-0.12 2.06-0.12 2.06-1.12 3.06-1.4 0.1-2.81 0.12-4.21 0.12-0.92 0.01-1.84 0.01-2.78 0.01-1.02 0-2.04 0-3.09-0.01-1.08 0-2.16 0.01-3.27 0.01-3.66 0-7.33-0.01-11-0.01h-7.9-17.2c-8.55-0.01-17.1-0.01-25.6-0.01-14.4 0.01-28.8 0-43.1 0-14.2-0.01-28.5-0.01-42.7-0.02h-2.68-13.5c-31.8 0-63.7-0.01-95.5-0.01-30.9-0.01-61.9-0.02-92.8-0.03h-2.89-28.7c-19.5 0-39 0-58.5-0.01h-2.72c-59.9-0.01-120-0.02-180-0.04v-53h53v-134h-32c-9.41-3.76-14.9-6.44-19.4-15.2-3.73-9.85-1.16-20.2 1.38-30 0.31-1.25 0.62-2.5 0.94-3.79 0.85-3.41 1.71-6.81 2.58-10.2 0.92-3.63 1.83-7.26 2.73-10.9 2.07-8.26 4.17-16.5 6.27-24.8 0.69-2.74 1.39-5.48 2.08-8.22 2.6-10.2 5.21-20.5 7.82-30.7 5.31-20.8 10.5-41.6 15.6-62.4 6.68-27.2 13.5-54.4 20.4-81.5 0.16-0.66 0.33-1.31 0.5-1.99 0.81-3.17 1.62-6.35 2.43-9.53 1.51-5.9 3-11.8 4.47-17.7 0.41-1.65 0.41-1.65 0.83-3.34 0.5-2.05 1.01-4.09 1.51-6.14 1.13-4.58 2.33-9.06 3.91-13.5-5.24 4.44-10.1 9.11-15 14-2.22 2.18-4.58 4.09-7.04 6-1.68 1.65-3.34 3.32-5 5-1.43 1.44-2.86 2.89-4.3 4.33-0.81 0.82-1.63 1.64-2.46 2.49-3.19 3.21-6.39 6.42-9.58 9.63-2.43 2.43-4.85 4.87-7.26 7.31-2.8 2.82-5.6 5.63-8.41 8.45-0.87 0.88-1.74 1.76-2.64 2.67l-2.44 2.44c-0.7 0.71-1.41 1.42-2.14 2.16-1.77 1.52-1.77 1.52-3.77 1.52l-1 3c-1.5 1.48-1.5 1.48-3.44 3.07-5.1 4.33-9.76 9.03-14.5 13.8-1.42 1.42-2.83 2.84-4.24 4.26-2.46 2.46-4.91 4.93-7.36 7.4-2.93 2.95-5.86 5.9-8.79 8.84-1.82 1.83-3.64 3.66-5.45 5.49-4.28 4.3-8.63 8.41-13.2 12.4-4.08 3.64-7.87 7.57-11.7 11.5-1.83 1.85-3.66 3.69-5.5 5.54-2.86 2.89-5.73 5.78-8.59 8.68-2.78 2.81-5.56 5.61-8.34 8.41-0.87 0.87-1.73 1.75-2.62 2.65-0.79 0.8-1.58 1.59-2.4 2.42-0.7 0.7-1.4 1.41-2.12 2.14-1.75 1.51-1.75 1.51-3.75 1.51v2c-1.36 1.34-1.36 1.34-3.31 2.93-3.51 2.98-6.76 6.1-9.96 9.39-0.46 0.47-0.92 0.94-1.4 1.43-1.9 1.94-3.8 3.89-5.69 5.86-7.84 8.15-15.4 15.4-27.3 15.7-16.7-0.24-27.4-15.2-38.3-26.2-2.21-2.24-4.43-4.48-6.65-6.71-0.5-0.51-1-1.02-1.51-1.54-2.21-2.23-4.27-4.06-6.9-5.81v-2c-0.58-0.26-1.16-0.51-1.76-0.78-2.44-1.33-4.04-2.79-5.99-4.76-0.72-0.73-1.45-1.45-2.19-2.2-0.77-0.78-1.54-1.57-2.33-2.37-0.8-0.81-1.6-1.62-2.43-2.45-2.56-2.58-5.12-5.16-7.67-7.75-2.55-2.58-5.1-5.15-7.65-7.73-1.59-1.6-3.18-3.2-4.76-4.8-3.15-3.18-6.26-6.27-9.75-9.07-1.22-1.03-1.22-1.03-2.47-2.09v-2l-4-2v-2c-0.57-0.25-1.14-0.49-1.73-0.75-2.65-1.46-4.41-3.16-6.54-5.31-0.84-0.84-1.67-1.68-2.53-2.54-0.9-0.91-1.79-1.82-2.71-2.76-1.42-1.42-2.85-2.85-4.27-4.28-1.99-2.01-3.97-4.01-5.96-6.02-3.93-3.98-7.87-7.95-11.8-11.9-1.37-1.37-2.73-2.75-4.09-4.13-4.42-4.46-8.91-8.76-13.7-12.8-3.45-2.97-6.65-6.19-9.87-9.39-0.69-0.66-1.38-1.33-2.08-2.01-7.15-7.1-11.8-13.4-12-23.7 0.14-11.7 5.42-17.1 13.3-25.3 0.62-0.64 1.23-1.28 1.86-1.95 2.84-2.9 5.78-5.63 8.87-8.27 4.21-3.68 8.17-7.56 12.1-11.5 0.71-0.71 1.42-1.43 2.15-2.16 2.24-2.26 4.47-4.51 6.71-6.77 2.96-2.98 5.92-5.97 8.89-8.95 1-1.02 1-1.02 2.03-2.05 3.32-3.35 6.69-6.39 10.4-9.31 1.69-1.64 3.36-3.31 5-5l3.57-3.6c0.65-0.66 1.31-1.32 1.98-2l8.82-8.88c1.55-1.56 3.11-3.13 4.66-4.7 2.24-2.26 4.49-4.52 6.73-6.78 0.7-0.7 1.4-1.41 2.11-2.14 0.65-0.64 1.29-1.29 1.96-1.95 0.56-0.57 1.13-1.14 1.71-1.73 1.46-1.22 1.46-1.22 3.46-1.22l1-3c1.46-1.43 1.46-1.43 3.36-2.99 5.04-4.28 9.67-8.92 14.3-13.6 1.58-1.59 3.16-3.18 4.75-4.77 3.36-3.37 6.72-6.75 10.1-10.1 3.9-3.92 7.8-7.84 11.7-11.8 1.54-1.55 3.09-3.11 4.63-4.67 4.63-4.65 9.32-9.17 14.3-13.4 3.35-2.95 6.45-6.14 9.57-9.32 1.43-1.44 2.85-2.87 4.27-4.31 2.22-2.24 4.43-4.48 6.64-6.72 2.15-2.18 4.31-4.36 6.47-6.54 0.66-0.67 1.33-1.35 2.01-2.05 0.62-0.62 1.23-1.24 1.86-1.87 0.54-0.55 1.08-1.1 1.64-1.66 1.4-1.17 1.4-1.17 3.4-1.17l1-3c1.56-1.54 1.56-1.54 3.55-3.18 4.46-3.78 8.57-7.83 12.7-12 0.75-0.76 1.5-1.51 2.28-2.29 2.37-2.39 4.75-4.78 7.12-7.17 3.13-3.17 6.27-6.33 9.41-9.48 1.07-1.08 1.07-1.08 2.15-2.18 2.91-2.92 5.81-5.79 9-8.4 2.8-2.31 5.28-4.72 7.81-7.32 1.4-1.41 2.81-2.83 4.21-4.24 0.79-0.8 1.59-1.6 2.41-2.43 3.57-3.6 7.16-7.2 10.7-10.8 1.89-1.9 3.79-3.81 5.68-5.71 2.72-2.76 5.46-5.5 8.19-8.25 1.28-1.28 1.28-1.28 2.58-2.6 0.78-0.78 1.56-1.57 2.37-2.38 0.69-0.69 1.39-1.39 2.1-2.11 1.72-1.48 1.72-1.48 3.72-1.48l1-3c1.55-1.52 1.55-1.52 3.53-3.15 4.59-3.91 8.83-8.1 13.1-12.4 0.79-0.8 1.58-1.59 2.39-2.41 2.51-2.52 5.01-5.04 7.51-7.56 3.3-3.33 6.6-6.65 9.91-9.97 1.11-1.13 1.11-1.13 2.25-2.28 3.98-4 8.07-7.79 12.3-11.5 3.62-3.2 6.98-6.65 10.4-10.1 1.15-1.16 1.15-1.16 2.33-2.34l7.29-7.35 9.63-9.69c0.72-0.73 1.44-1.46 2.18-2.21 3.31-3.32 6.65-6.55 10.2-9.61 4.27-3.68 8.2-7.65 12.1-11.7 1.53-1.55 3.06-3.11 4.6-4.66 2.38-2.42 4.75-4.84 7.12-7.27 2.32-2.37 4.64-4.72 6.97-7.07 1.05-1.08 1.05-1.08 2.12-2.19 6.54-6.57 12.9-10.1 22.3-10.9 11.2 0.75 18.7 6.98 26.8 14.2 0.14-0.95 0.14-0.95 0.29-1.91 1.3-8 3.53-15.5 6.09-23.2 0.21-0.65 0.43-1.3 0.65-1.97 8.22-24.5 20.2-46.6 36-66.9 1.19-1.58 2.38-3.16 3.56-4.75 0.82-1.08 1.63-2.17 2.44-3.25-2.09-4.64-5.33-7.73-8.87-11.3-0.63-0.66-1.25-1.32-1.9-2-0.91-0.92-0.91-0.92-1.84-1.87-0.56-0.56-1.11-1.13-1.68-1.71-1.66-1.32-1.66-1.32-3.78-0.95-2.56 1.11-3.78 2.96-5.47 5.12-1.57 1.85-3.24 3.33-5.09 4.9-4.54 3.91-8.75 8.11-13 12.4-1.61 1.62-3.21 3.23-4.82 4.85-2.5 2.53-5.01 5.06-7.51 7.59-2.43 2.46-4.86 4.92-7.3 7.37-0.75 0.77-1.5 1.53-2.28 2.32-0.69 0.7-1.39 1.4-2.1 2.12-0.61 0.61-1.22 1.23-1.85 1.87-1.56 1.32-1.56 1.32-3.56 1.32v2c-7.02 6.91-14 11.8-24 12.4-10.2-0.55-16-5.37-23-12.4l-1.51-1.51c-4.22-4.2-4.22-4.2-6.2-6.24-2.44-2.49-4.93-4.81-7.65-6.98-0.87-0.75-1.74-1.5-2.64-2.27v-2c-0.57-0.25-1.15-0.5-1.74-0.76-2.57-1.41-4.27-3.02-6.34-5.11-0.79-0.79-1.58-1.59-2.39-2.4-0.85-0.86-1.69-1.72-2.56-2.61-1.32-1.32-1.32-1.32-2.65-2.66-2.33-2.34-4.64-4.68-6.96-7.02-3.26-3.31-6.53-6.6-9.81-9.9-1.74-1.75-3.48-3.51-5.21-5.27-0.79-0.79-1.58-1.58-2.39-2.4-0.69-0.7-1.38-1.4-2.1-2.12-1.93-1.93-1.93-1.93-4.85-3.75v-2c-0.59-0.27-1.19-0.54-1.8-0.82-2.17-1.17-3.56-2.31-5.28-4.05-0.57-0.58-1.15-1.16-1.74-1.75-0.92-0.94-0.92-0.94-1.85-1.89-0.64-0.65-1.28-1.29-1.94-1.96-2.05-2.07-4.1-4.14-6.14-6.22-2.03-2.05-4.06-4.11-6.09-6.16-1.26-1.28-2.52-2.55-3.78-3.83-2.95-2.99-5.95-5.85-9.14-8.59-4.8-4.14-9.24-8.62-13.7-13.1-1.53-1.55-3.06-3.09-4.6-4.63-3.25-3.27-6.5-6.53-9.75-9.8-3.78-3.81-7.57-7.62-11.4-11.4-1.51-1.52-3.02-3.04-4.53-4.56-0.91-0.92-1.83-1.83-2.77-2.78-0.8-0.81-1.61-1.62-2.44-2.45-2.12-2.13-2.12-2.13-5.09-3.98v-2l-4-2v-2c-0.58-0.25-1.15-0.5-1.75-0.76-2.53-1.4-4.21-2.97-6.25-5.03-0.77-0.78-1.55-1.55-2.34-2.36-0.83-0.84-1.66-1.68-2.52-2.55s-1.72-1.74-2.61-2.63c-2.77-2.78-5.52-5.57-8.28-8.36-2.74-2.77-5.48-5.54-8.23-8.3-1.71-1.72-3.41-3.44-5.12-5.17-4.19-4.23-8.46-8.27-13-12.2-3.29-2.9-6.34-6.01-9.42-9.13-0.68-0.68-1.36-1.37-2.06-2.07-2.87-2.89-5.74-5.78-8.6-8.67-2.11-2.13-4.22-4.26-6.34-6.38-0.63-0.64-1.26-1.29-1.92-1.95-3.03-3.05-6.11-5.98-9.37-8.78-4.73-4.09-9.11-8.5-13.5-12.9-1.52-1.53-3.03-3.05-4.55-4.57-3.76-3.78-7.52-7.56-11.3-11.3-3.18-3.21-6.37-6.41-9.57-9.62-1.48-1.48-2.95-2.97-4.43-4.46-4.49-4.51-9.03-8.85-13.8-13-4.16-3.69-8.02-7.69-11.9-11.6-1.42-1.42-2.83-2.84-4.24-4.26-2.95-2.96-5.9-5.93-8.84-8.89-2.44-2.46-4.87-4.91-7.31-7.35-1.82-1.83-3.64-3.66-5.45-5.49-4.32-4.34-8.71-8.51-13.4-12.5-3.28-2.89-6.33-6-9.4-9.11-0.68-0.68-1.36-1.37-2.06-2.07-2.87-2.89-5.74-5.78-8.6-8.67-2.11-2.13-4.22-4.26-6.34-6.38-0.63-0.64-1.26-1.29-1.92-1.95-3.75-3.77-7.64-7.33-11.7-10.8-2.84-2.49-5.54-5.11-8.24-7.76-0.55-0.55-1.11-1.1-1.68-1.66l-3.48-3.45c-1.17-1.16-2.35-2.32-3.54-3.47-1.73-1.69-3.45-3.4-5.17-5.11-0.52-0.5-1.05-1.01-1.59-1.53-5.71-5.75-8.91-12.3-9.46-20.4 0.23-10.9 6.29-18.3 13.6-25.9 2.68-2.44 2.68-2.44 4.68-2.44v-2c1.48-1.45 1.48-1.45 3.52-3.14 4.31-3.67 8.3-7.56 12.3-11.6 0.71-0.71 1.42-1.42 2.14-2.15 2.24-2.25 4.47-4.5 6.7-6.74 2.95-2.98 5.9-5.95 8.85-8.92 0.66-0.67 1.33-1.35 2.02-2.04 2.8-2.82 5.59-5.56 8.66-8.07 2.8-2.32 5.3-4.75 7.84-7.35l3.57-3.6c0.65-0.66 1.31-1.32 1.98-2l8.82-8.88c1.55-1.56 3.11-3.13 4.66-4.7 2.24-2.26 4.49-4.52 6.73-6.78 0.7-0.7 1.4-1.41 2.11-2.14 0.65-0.64 1.29-1.29 1.96-1.95 0.56-0.57 1.13-1.14 1.71-1.73 1.46-1.22 1.46-1.22 3.46-1.22l1-3c1.48-1.45 1.48-1.45 3.41-3.03 4.83-4.1 9.26-8.54 13.7-13 1.47-1.49 2.94-2.97 4.42-4.45 4.18-4.21 8.35-8.42 12.5-12.6 2.57-2.59 5.14-5.18 7.72-7.76 0.97-0.99 1.95-1.97 2.92-2.96 1.35-1.37 2.71-2.74 4.07-4.1 0.77-0.78 1.54-1.56 2.34-2.36 1.89-1.66 1.89-1.66 3.89-1.66v-2c6.04-6.52 11.8-8.22 20.4-8zm-8.44 70c-1.35 1.65-2.69 3.31-4 5l-3 2v2c-0.56 0.24-1.12 0.47-1.7 0.71-2.84 1.59-4.78 3.54-7.06 5.86-0.89 0.9-1.78 1.79-2.7 2.72-1.38 1.4-1.38 1.4-2.79 2.83-0.94 0.96-1.89 1.91-2.83 2.87-2.31 2.33-4.62 4.67-6.92 7.01 1.38 3.19 2.87 4.99 5.55 7.17 4.83 4.1 9.25 8.54 13.7 13 1.75 1.76 3.49 3.51 5.23 5.27 2.72 2.74 5.44 5.49 8.16 8.24 2.64 2.67 5.28 5.33 7.93 7.99 0.81 0.84 1.63 1.67 2.47 2.52 1.14 1.14 1.14 1.14 2.29 2.3 0.67 0.67 1.33 1.34 2.02 2.04 1.55 1.65 1.55 1.65 3.66 1.43 0.26 0.6 0.52 1.19 0.78 1.81 1.33 2.38 2.61 3.59 4.72 5.31 5.16 4.38 9.87 9.16 14.6 14 0.95 0.95 1.9 1.91 2.84 2.86 3.99 4.02 7.98 8.04 12 12.1 2.45 2.48 4.9 4.95 7.36 7.42 1.39 1.39 2.77 2.79 4.15 4.19 1.25 1.26 1.25 1.26 2.53 2.54 0.73 0.75 1.47 1.49 2.22 2.25 1.67 1.81 1.67 1.81 3.82 1.59l1 3c1.36 1.38 1.36 1.38 3.14 2.75 4.19 3.56 8.05 7.37 11.9 11.3 0.63 0.63 1.26 1.27 1.91 1.93 2.65 2.67 5.29 5.35 7.93 8.03 1.94 1.98 3.89 3.95 5.84 5.91 0.9 0.92 0.9 0.92 1.82 1.86 1.44 1.45 2.94 2.85 4.44 4.24h2l1 3h2l1 3c1.57 1.59 1.57 1.59 3.51 3.14 4.69 3.98 8.99 8.26 13.3 12.6 1.65 1.66 3.3 3.32 4.95 4.99 2.58 2.6 5.15 5.2 7.72 7.81 2.5 2.53 5.01 5.05 7.51 7.57 0.78 0.79 1.55 1.58 2.35 2.39 0.71 0.72 1.43 1.43 2.17 2.17 0.62 0.64 1.25 1.28 1.9 1.93 1.5 1.58 1.5 1.58 3.59 1.36v2c1.47 1.48 1.47 1.48 3.4 3.03 4.99 4.24 9.57 8.83 14.2 13.5 1.33 1.34 1.33 1.34 2.68 2.7 2.82 2.82 5.62 5.65 8.43 8.48 3.71 3.73 7.42 7.47 11.1 11.2 0.84 0.85 1.69 1.71 2.56 2.59l2.41 2.41c0.69 0.7 1.38 1.4 2.1 2.12 2.26 2.14 4.66 4.06 7.1 5.99 1.69 1.64 3.36 3.31 5 5 1.28 1.29 2.56 2.57 3.84 3.85 0.71 0.72 1.43 1.44 2.17 2.18 3.24 3.26 6.49 6.51 9.74 9.77 1.7 1.71 3.41 3.43 5.12 5.14 2.47 2.49 4.95 4.97 7.43 7.46 1.13 1.13 1.13 1.13 2.28 2.29 3.36 3.36 6.74 6.64 10.4 9.73 4.9 4.23 9.42 8.82 14 13.4 1.41 1.42 2.82 2.84 4.24 4.26 2.95 2.96 5.89 5.93 8.84 8.89 2.43 2.46 4.87 4.91 7.31 7.35 1.81 1.83 3.63 3.66 5.45 5.49 4.33 4.35 8.73 8.52 13.4 12.5 3.12 2.75 6.02 5.71 8.93 8.68 1.28 1.3 2.57 2.6 3.86 3.89 1.99 2.03 3.99 4.05 5.98 6.07 1.94 1.98 3.89 3.95 5.84 5.91 0.6 0.61 1.2 1.23 1.82 1.86 1.44 1.45 2.94 2.85 4.44 4.24h2l1 3h2l1 3c3.34-0.58 4.96-1.59 7.31-3.99l1.9-1.9c0.66-0.68 1.32-1.36 2.01-2.07 0.69-0.7 1.38-1.4 2.1-2.12 2.21-2.23 4.42-4.48 6.62-6.73 2.2-2.24 4.41-4.47 6.61-6.71 1.37-1.39 2.74-2.78 4.11-4.17 3.29-3.35 6.58-6.47 10.3-9.31-0.56-3.56-1.66-4.9-4.44-7.13-5.12-4.29-9.77-8.97-14.5-13.7-1.42-1.42-2.83-2.84-4.24-4.26-2.95-2.96-5.9-5.93-8.84-8.89-2.44-2.46-4.87-4.91-7.31-7.35-1.82-1.83-3.64-3.66-5.45-5.49-4.29-4.31-8.64-8.43-13.2-12.4-3.92-3.48-7.57-7.24-11.3-11-1.28-1.29-1.28-1.29-2.6-2.61-3.63-3.65-7.26-7.31-10.9-11-2.67-2.68-5.34-5.36-8.01-8.04-0.81-0.82-1.61-1.64-2.45-2.48-4.15-4.17-8.39-8.15-12.8-12-3.45-3.06-6.65-6.35-9.88-9.63-1.47-1.48-2.93-2.96-4.4-4.45-2.29-2.31-4.57-4.62-6.86-6.94-2.22-2.25-4.45-4.49-6.67-6.74-0.69-0.7-1.38-1.4-2.08-2.12l-1.93-1.93c-0.83-0.85-0.83-0.85-1.69-1.71-1.38-1.42-1.38-1.42-3.44-1.21l-1-3c-1.52-1.54-1.52-1.54-3.43-3.06-5.18-4.4-9.91-9.19-14.7-14-0.95-0.95-1.9-1.91-2.85-2.86-3.99-4.02-7.97-8.04-12-12.1-2.45-2.48-4.91-4.95-7.37-7.42-1.38-1.39-2.76-2.79-4.14-4.19-0.83-0.84-1.67-1.68-2.53-2.54-0.74-0.75-1.47-1.49-2.23-2.25-1.67-1.81-1.67-1.81-3.82-1.59l-1-3c-1.55-1.58-1.55-1.58-3.5-3.13-4.76-4.04-9.14-8.4-13.5-12.8-1.25-1.26-1.25-1.26-2.53-2.54-3.54-3.56-7.08-7.12-10.6-10.7-2.6-2.62-5.2-5.23-7.8-7.84-0.78-0.8-1.57-1.59-2.38-2.41-4.13-4.14-8.34-8.09-12.8-11.9-2.97-2.61-5.73-5.42-8.49-8.24-1.2-1.21-2.4-2.42-3.59-3.62-1.85-1.88-3.7-3.76-5.55-5.64-1.81-1.83-3.62-3.66-5.43-5.49-0.55-0.57-1.11-1.14-1.68-1.72-1.34-1.35-2.74-2.65-4.14-3.94h-2l-1-3c-1.47-1.49-1.47-1.49-3.33-2.96-5.19-4.4-9.93-9.21-14.7-14-1.64-1.65-3.28-3.3-4.92-4.95-4.66-4.69-9.31-9.38-14-14.1-2.86-2.89-5.72-5.77-8.59-8.64-1.09-1.1-2.18-2.2-3.26-3.29-1.51-1.53-3.02-3.05-4.54-4.57-0.86-0.87-1.72-1.74-2.6-2.63-1.87-2.07-1.87-2.07-4.09-1.85l-1-3c-1.58-1.6-1.58-1.6-3.54-3.17-4.52-3.83-8.67-7.95-12.8-12.2-1.56-1.57-3.12-3.14-4.68-4.72-2.44-2.45-4.87-4.91-7.29-7.37-2.36-2.39-4.73-4.78-7.1-7.16-0.73-0.74-1.46-1.49-2.21-2.25-0.67-0.68-1.35-1.36-2.04-2.06-0.6-0.6-1.19-1.2-1.8-1.82-4.17-3.52-8.52 2.84-11.5 5.72zm975-5.01c-0.96 1-1.92 2.01-2.88 3.01-1.24 1.26-2.49 2.51-3.74 3.76-1.04 1.05-1.04 1.05-2.11 2.12-3.15 3.16-6.31 6.33-9.47 9.49-1.65 1.67-3.31 3.33-4.97 5-2.41 2.42-4.82 4.83-7.23 7.25-0.73 0.73-1.46 1.47-2.21 2.23-3.32 3.32-6.67 6.55-10.2 9.61-4.58 3.95-8.82 8.21-13.1 12.5-1.25 1.26-1.25 1.26-2.53 2.54-2.65 2.66-5.29 5.33-7.94 7.99-3.48 3.51-6.97 7.02-10.5 10.5-0.78 0.8-1.57 1.59-2.38 2.41-3.45 3.47-6.92 6.85-10.6 10-4.69 4.04-9.02 8.41-13.4 12.8-1.3 1.31-1.3 1.31-2.62 2.63-2.74 2.76-5.48 5.51-8.21 8.27-3.62 3.64-7.24 7.28-10.9 10.9-0.82 0.83-1.65 1.66-2.5 2.52-3.08 3.1-6.09 6.08-9.52 8.8-0.64 0.52-1.28 1.04-1.94 1.57v2c-0.86 0.37-0.86 0.37-1.73 0.75-2.64 1.46-4.41 3.16-6.53 5.3-0.83 0.84-1.66 1.67-2.52 2.53-1.33 1.35-1.33 1.35-2.69 2.73-1.4 1.42-2.81 2.83-4.21 4.24-1.97 1.98-3.93 3.96-5.89 5.94-3.43 3.47-6.86 6.93-10.3 10.4-1.83 1.84-3.66 3.68-5.49 5.53-0.82 0.84-1.65 1.67-2.5 2.53-0.73 0.73-1.46 1.47-2.21 2.23-1.93 1.82-1.93 1.82-4.93 3.82v2c-0.86 0.38-0.86 0.38-1.74 0.76-2.57 1.41-4.27 3.02-6.34 5.11-0.79 0.79-1.58 1.59-2.39 2.4-1.27 1.29-1.27 1.29-2.56 2.61-0.88 0.88-1.75 1.76-2.65 2.66-2.33 2.34-4.64 4.68-6.96 7.02-3.26 3.31-6.53 6.6-9.81 9.9-1.74 1.75-3.48 3.51-5.21 5.27-1.18 1.19-1.18 1.19-2.39 2.4-0.69 0.7-1.38 1.4-2.1 2.12-1.85 1.75-1.85 1.75-4.85 3.75v2l-4 2v2c-0.59 0.26-1.18 0.53-1.78 0.8-2.31 1.25-3.81 2.56-5.65 4.42-0.98 0.99-0.98 0.99-1.98 1.99-0.69 0.7-1.38 1.41-2.09 2.13-0.72 0.73-1.44 1.45-2.18 2.2-2.3 2.32-4.59 4.64-6.88 6.96s-4.59 4.64-6.89 6.96c-1.43 1.44-2.85 2.89-4.28 4.33-0.97 0.98-0.97 0.98-1.96 1.99-0.57 0.57-1.14 1.15-1.72 1.74-1.59 1.48-1.59 1.48-4.59 3.48v2l-4 2v2c-0.57 0.25-1.15 0.5-1.74 0.76-2.57 1.41-4.28 3.03-6.35 5.12-0.79 0.8-1.59 1.6-2.41 2.42-0.85 0.86-1.7 1.73-2.58 2.62-1.32 1.33-1.32 1.33-2.68 2.7-2.35 2.37-4.7 4.74-7.05 7.12-3.29 3.32-6.59 6.65-9.88 9.96-1.76 1.77-3.51 3.54-5.25 5.31-4.23 4.26-8.54 8.34-13.1 12.2-3.6 3.19-6.95 6.63-10.3 10-0.77 0.78-1.54 1.55-2.33 2.34-2.44 2.45-4.87 4.9-7.3 7.35-3.2 3.23-6.41 6.46-9.62 9.69-1.08 1.09-1.08 1.09-2.19 2.21-3.99 4.01-8.07 7.83-12.4 11.5-2.91 2.62-5.32 5.59-7.8 8.62 1.5 1.52 3 3.04 4.5 4.56 0.84 0.85 1.67 1.7 2.53 2.57 2.14 2.11 4.36 4.08 6.64 6.03 5.86 5.07 11.2 10.7 16.6 16.2 1.38 1.42 2.77 2.83 4.16 4.24 0.81 0.84 1.62 1.67 2.46 2.53 2.06 2.14 2.06 2.14 5.14 1.82 2.48-2.23 2.48-2.23 5-5 1.67-1.67 3.33-3.34 5-5 1.55-1.56 3.1-3.11 4.65-4.67 4.4-4.41 8.81-8.83 13.2-13.2 2.66-2.66 5.31-5.32 7.96-7.99 2.58-2.59 5.16-5.17 7.74-7.76 0.99-0.98 1.97-1.96 2.94-2.95l6.47-6.47c2.03-1.92 2.03-1.92 5.03-3.92v-2c0.59-0.26 1.18-0.53 1.79-0.8 2.31-1.25 3.81-2.57 5.66-4.44 0.98-0.98 0.98-0.98 1.98-1.99 0.7-0.71 1.4-1.42 2.12-2.16 0.73-0.73 1.46-1.47 2.21-2.22 2.34-2.36 4.67-4.72 6.99-7.08 2.32-2.34 4.63-4.68 6.95-7.02 1.44-1.45 2.88-2.91 4.31-4.36 3.2-3.23 6.42-6.35 9.86-9.3 5.01-4.32 9.61-9 14.3-13.7 0.95-0.96 1.91-1.92 2.87-2.88 3-3.02 6-6.04 9-9.06 3.49-3.51 6.97-7.01 10.5-10.5 1.38-1.39 2.76-2.78 4.13-4.17 4.33-4.34 8.71-8.5 13.4-12.5 4.24-3.78 8.18-7.86 12.2-11.9 0.95-0.96 1.9-1.91 2.84-2.86 2.98-2.99 5.95-5.97 8.92-8.97 3.46-3.48 6.93-6.97 10.4-10.4 1.38-1.39 2.76-2.79 4.15-4.18 0.83-0.84 1.66-1.68 2.53-2.54 1.1-1.11 1.1-1.11 2.22-2.24 1.82-1.71 1.82-1.71 3.82-2.71v-2c0.59-0.26 1.17-0.52 1.77-0.78 2.43-1.33 4.02-2.77 5.96-4.73 1.07-1.08 1.07-1.08 2.16-2.18 0.77-0.78 1.53-1.55 2.32-2.35s1.59-1.61 2.41-2.43c2.55-2.57 5.09-5.14 7.63-7.72 2.53-2.55 5.06-5.11 7.59-7.66 1.58-1.59 3.15-3.17 4.72-4.77 3.37-3.4 6.75-6.7 10.4-9.82 4.83-4.16 9.27-8.66 13.8-13.2 0.9-0.91 1.8-1.82 2.73-2.75 2.87-2.87 5.72-5.75 8.58-8.63 3.77-3.79 7.54-7.59 11.3-11.4 0.85-0.86 1.7-1.72 2.58-2.6 3.58-3.6 7.16-7.13 11-10.4 4.76-4.09 9.16-8.54 13.6-13 1.55-1.55 3.1-3.11 4.65-4.67 3.29-3.3 6.58-6.6 9.86-9.91 3.82-3.84 7.63-7.67 11.4-11.5 1.51-1.52 3.02-3.05 4.53-4.57 4.6-4.62 9.26-9.1 14.2-13.3 3.01-2.64 5.8-5.48 8.61-8.33 0.61-0.61 1.21-1.21 1.83-1.84 1.9-1.91 3.79-3.82 5.69-5.73 2.51-2.54 5.03-5.08 7.55-7.62 0.57-0.58 1.14-1.16 1.73-1.75 2.37-2.39 4.59-4.45 7.4-6.32-1.45-3.33-3.28-5.54-5.84-8.11l-2.28-2.28c-0.78-0.78-1.57-1.56-2.38-2.36-0.78-0.79-1.57-1.59-2.38-2.4l-2.27-2.27c-0.69-0.69-1.38-1.38-2.09-2.08-1.63-1.72-1.63-1.72-3.76-1.5l-1-3c-1.55-1.58-1.55-1.58-3.5-3.12-4.13-3.49-7.88-7.26-11.6-11.2-2.75-2.51-3.31-2.27-6.01 0.27zm78.3 75.6c-0.74 0.75-1.47 1.51-2.23 2.28-0.81 0.83-1.63 1.65-2.47 2.5-0.85 0.88-1.7 1.75-2.58 2.65-1.67 1.7-3.34 3.4-5.01 5.1-0.74 0.76-1.48 1.52-2.25 2.3-2.07 2.01-4.16 3.89-6.35 5.77-4.71 4.09-9.09 8.48-13.5 12.9-0.85 0.86-1.7 1.71-2.57 2.58-2.68 2.7-5.36 5.39-8.04 8.09-3.55 3.57-7.09 7.14-10.6 10.7-0.82 0.82-1.63 1.64-2.47 2.49-0.75 0.75-1.51 1.51-2.28 2.29-0.67 0.67-1.33 1.34-2.01 2.03-1.79 1.67-1.79 1.67-4.79 3.67v2c-0.57 0.24-1.14 0.49-1.72 0.74-2.69 1.49-4.49 3.24-6.64 5.42-1.29 1.28-1.29 1.28-2.59 2.6-1.38 1.39-1.38 1.39-2.78 2.81-0.96 0.97-1.92 1.94-2.89 2.9-2.53 2.55-5.06 5.1-7.58 7.66-4.03 4.07-8.06 8.13-12.1 12.2-1.4 1.41-2.79 2.82-4.19 4.23-4.36 4.4-8.78 8.62-13.5 12.7-4.08 3.62-7.87 7.54-11.7 11.4-0.91 0.91-1.81 1.82-2.74 2.75-2.86 2.87-5.72 5.75-8.58 8.63-3.77 3.79-7.54 7.59-11.3 11.4-0.85 0.86-1.7 1.72-2.58 2.6-4.26 4.28-8.59 8.37-13.2 12.3-3.47 3.06-6.69 6.36-9.95 9.66-0.72 0.73-1.45 1.46-2.2 2.22-2.31 2.31-4.61 4.63-6.91 6.95-3.04 3.07-6.09 6.14-9.14 9.2-1.03 1.04-1.03 1.04-2.08 2.11-2.95 2.96-5.88 5.81-9.14 8.42-0.83 0.71-1.66 1.42-2.52 2.15v2c-0.86 0.38-0.86 0.38-1.74 0.76-2.57 1.41-4.27 3.02-6.34 5.11-0.79 0.79-1.58 1.59-2.39 2.4-1.27 1.29-1.27 1.29-2.56 2.61-0.88 0.88-1.75 1.76-2.65 2.66-2.33 2.34-4.64 4.68-6.96 7.02-3.26 3.31-6.53 6.6-9.81 9.9-1.74 1.75-3.48 3.51-5.21 5.27-1.18 1.19-1.18 1.19-2.39 2.4-0.69 0.7-1.38 1.4-2.1 2.12-1.85 1.75-1.85 1.75-4.85 3.75v2l-4 2v2c-0.58 0.26-1.16 0.51-1.76 0.78-2.46 1.34-4.07 2.82-6.04 4.81-0.73 0.74-1.46 1.47-2.21 2.23-0.78 0.79-1.56 1.58-2.37 2.4-1.21 1.22-1.21 1.22-2.45 2.46-2.58 2.6-5.15 5.21-7.73 7.82s-5.16 5.21-7.74 7.82c-1.61 1.62-3.22 3.24-4.82 4.86-1.09 1.1-1.09 1.1-2.2 2.23-0.96 0.97-0.96 0.97-1.94 1.96-1.74 1.63-1.74 1.63-4.74 3.63v2c-0.85 0.36-0.85 0.36-1.72 0.74-2.71 1.5-4.54 3.29-6.72 5.49-0.87 0.88-1.74 1.75-2.64 2.65-0.94 0.96-1.89 1.91-2.83 2.87-0.97 0.98-1.94 1.96-2.92 2.94-2.56 2.57-5.11 5.15-7.66 7.73-4.09 4.13-8.19 8.25-12.3 12.4-1.43 1.44-2.86 2.88-4.28 4.33-0.87 0.87-1.74 1.74-2.63 2.65-0.76 0.77-1.53 1.54-2.31 2.33-2.01 1.9-2.01 1.9-5.01 3.9v2c-0.55 0.22-1.09 0.44-1.66 0.67-3.06 1.74-5.32 4.07-7.76 6.56l-1.53 1.53-4.8 4.86c-1.09 1.1-2.18 2.2-3.27 3.3-2.66 2.69-5.32 5.38-7.98 8.08 1.1 3.28 1.76 3.86 4.35 5.97 3.56 3.02 6.9 6.2 10.2 9.53 0.47 0.48 0.95 0.96 1.44 1.46 1.98 2 3.95 4.01 5.92 6.03 1.46 1.48 2.92 2.96 4.39 4.44 0.86 0.88 1.72 1.76 2.6 2.66 1.89 2.13 1.89 2.13 4.12 1.91v2c1.96 1.71 3.96 3.38 6 5 2.8-1.28 4.84-2.59 6.99-4.78 0.56-0.56 1.11-1.11 1.68-1.69 0.88-0.9 0.88-0.9 1.79-1.82 0.61-0.63 1.23-1.25 1.87-1.89 1.98-2 3.95-4 5.92-6.01 1.96-1.98 3.92-3.97 5.88-5.95 1.22-1.23 2.43-2.46 3.65-3.7 2.96-3 5.98-5.86 9.18-8.62 4.11-3.55 7.94-7.33 11.8-11.2 0.7-0.7 1.41-1.41 2.13-2.14 2.22-2.23 4.44-4.46 6.65-6.7 2.93-2.95 5.85-5.9 8.78-8.84 0.66-0.67 1.31-1.33 1.99-2.02 3.11-3.12 6.25-6.13 9.6-9 4.92-4.25 9.46-8.86 14-13.5 1.4-1.4 2.8-2.81 4.2-4.21 2.43-2.44 4.85-4.88 7.28-7.33 2.92-2.94 5.84-5.87 8.76-8.81 1.82-1.82 3.63-3.65 5.44-5.47 0.81-0.82 1.63-1.64 2.47-2.48 1.07-1.09 1.07-1.09 2.17-2.19 1.78-1.67 1.78-1.67 3.78-2.67v-2c0.57-0.24 1.13-0.48 1.71-0.72 2.79-1.56 4.68-3.44 6.93-5.71 0.92-0.92 1.83-1.84 2.78-2.78 0.99-1.01 1.98-2.01 2.97-3.02 1.03-1.04 2.06-2.07 3.09-3.1 2.71-2.73 5.42-5.46 8.12-8.19 4.31-4.35 8.63-8.7 13-13 1.49-1.51 2.99-3.02 4.48-4.53 4.57-4.61 9.19-9.06 14.1-13.3 3.26-2.86 6.28-5.94 9.32-9.02 0.67-0.68 1.34-1.35 2.03-2.05 2.11-2.12 4.22-4.25 6.33-6.37 2.79-2.82 5.59-5.64 8.39-8.46 0.96-0.97 0.96-0.97 1.93-1.96 0.6-0.59 1.19-1.19 1.8-1.81 0.52-0.52 1.04-1.05 1.58-1.59 1.48-1.37 1.48-1.37 4.48-3.37v-2l4-2v-2c0.59-0.26 1.17-0.52 1.77-0.78 2.42-1.32 4.01-2.76 5.94-4.72l2.16-2.16c0.75-0.77 1.51-1.55 2.29-2.34 0.79-0.79 1.58-1.58 2.39-2.4 2.51-2.53 5.01-5.06 7.51-7.6 2.51-2.54 5.02-5.07 7.54-7.6 1.56-1.58 3.12-3.15 4.68-4.74 1.06-1.07 1.06-1.07 2.14-2.16 0.62-0.63 1.24-1.26 1.88-1.91 1.7-1.59 1.7-1.59 4.7-3.59v-2c0.56-0.23 1.11-0.46 1.68-0.69 2.98-1.68 5.02-3.78 7.43-6.2 0.49-0.5 0.99-1 1.5-1.51 1.62-1.63 3.25-3.27 4.87-4.92 1.13-1.14 2.26-2.27 3.4-3.41 2.98-2.99 5.95-5.99 8.92-8.99 4.76-4.81 9.53-9.61 14.3-14.4 1.66-1.68 3.33-3.36 4.99-5.04 1.02-1.03 2.04-2.05 3.06-3.08 0.89-0.89 1.78-1.79 2.69-2.72 2.15-2.04 2.15-2.04 4.15-3.04v-2c0.59-0.27 1.19-0.53 1.8-0.81 2.25-1.22 3.71-2.46 5.5-4.28 0.62-0.62 1.24-1.24 1.88-1.89 0.66-0.67 1.32-1.35 2-2.04 1.04-1.04 1.04-1.04 2.09-2.11 2.21-2.22 4.41-4.45 6.61-6.68 2.19-2.22 4.38-4.44 6.58-6.66 1.36-1.37 2.73-2.75 4.09-4.14 2.87-2.9 5.73-5.67 8.92-8.23 1.25-1.07 1.25-1.07 2.53-2.16v-2c0.56-0.24 1.13-0.48 1.7-0.72 4.9-2.73 8.63-7.28 12.6-11.2 1.41-1.38 1.41-1.38 2.84-2.78 0.88-0.89 1.77-1.77 2.68-2.68l2.46-2.46c2.09-2.06 2.09-2.06 1.77-5.14-1.52-1.66-1.52-1.66-3.54-3.23-4.14-3.48-7.95-7.16-11.7-11-1.33-1.34-2.66-2.69-4-4.03-2.07-2.09-4.13-4.19-6.2-6.29-2.01-2.04-4.03-4.08-6.05-6.11-0.62-0.64-1.24-1.27-1.88-1.93-1.5-1.5-3.04-2.95-4.6-4.39-2.16-0.22-2.16-0.22-3.84 1.63zm-1137 11.8c-2.4 2.4-4.79 4.81-7.17 7.21-1.23 1.23-2.45 2.46-3.67 3.68-2.24 2.26-4.49 4.51-6.73 6.76-2.63 2.66-5.27 5.3-7.92 7.94 4.13 4.15 8.25 8.29 12.4 12.4 1.4 1.41 2.8 2.82 4.2 4.22 2.02 2.04 4.05 4.07 6.08 6.1 0.61 0.62 1.23 1.24 1.86 1.88 3.02 3.02 6.07 5.92 9.31 8.69 5.02 4.34 9.63 9.05 14.3 13.8 0.95 0.95 1.9 1.91 2.84 2.86 3.99 4.02 7.98 8.04 12 12.1 2.45 2.48 4.9 4.95 7.36 7.42 1.39 1.39 2.77 2.79 4.15 4.19 0.83 0.84 1.66 1.68 2.53 2.54 0.73 0.75 1.47 1.49 2.22 2.25 1.67 1.81 1.67 1.81 3.82 1.59 0.26 0.59 0.52 1.19 0.78 1.8 1.34 2.41 2.65 3.64 4.77 5.37 4.83 4.1 9.25 8.54 13.7 13 1.75 1.76 3.49 3.51 5.23 5.27 2.72 2.74 5.44 5.49 8.16 8.24 2.64 2.67 5.28 5.33 7.93 7.99 0.81 0.84 1.63 1.67 2.47 2.52 0.76 0.76 1.51 1.52 2.29 2.3 0.67 0.67 1.33 1.34 2.02 2.04 1.55 1.65 1.55 1.65 3.66 1.43 0.27 0.6 0.53 1.2 0.8 1.82 1.27 2.31 2.39 3.39 4.43 5.03 4.08 3.45 7.85 7.16 11.6 11 0.91 0.92 0.91 0.92 1.85 1.86 2.55 2.58 5.09 5.16 7.64 7.75 1.87 1.91 3.75 3.8 5.63 5.7 0.58 0.59 1.16 1.18 1.75 1.79 1.39 1.4 2.84 2.75 4.29 4.09h2l1 3c1.54 1.56 1.54 1.56 3.47 3.1 4.93 4.19 9.45 8.71 14 13.3l2.67 2.67c3.26 3.28 6.52 6.56 9.77 9.84 3.21 3.23 6.42 6.45 9.62 9.67 0.83 0.84 1.66 1.68 2.52 2.55 3.55 3.56 7.1 7.04 10.9 10.3 4.98 4.28 9.55 8.96 14.2 13.6 0.95 0.95 1.9 1.91 2.84 2.86 3.99 4.02 7.98 8.04 12 12.1 2.45 2.48 4.9 4.95 7.36 7.42 1.39 1.39 2.77 2.79 4.15 4.19 0.83 0.84 1.66 1.68 2.53 2.54 0.73 0.75 1.47 1.49 2.22 2.25 1.67 1.81 1.67 1.81 3.82 1.59l1 3h2l1 3c1.37 1.39 1.37 1.39 3.16 2.78 4.1 3.48 7.9 7.19 11.7 11 0.61 0.62 1.23 1.24 1.87 1.88 2.58 2.6 5.15 5.2 7.73 7.81 1.9 1.92 3.8 3.83 5.71 5.75 0.57 0.58 1.13 1.15 1.72 1.74 2.89 2.92 5.84 5.7 8.96 8.37 4.78 4.14 9.19 8.61 13.6 13.1l5.37 5.4 8.37 8.46c2.71 2.74 5.42 5.47 8.14 8.21 0.84 0.85 1.68 1.7 2.54 2.58 0.78 0.78 1.55 1.56 2.35 2.36 1.02 1.03 1.02 1.03 2.07 2.09 1.58 1.69 1.58 1.69 3.7 1.47v2c1.39 1.4 1.39 1.4 3.25 2.88 4.51 3.79 8.58 7.93 12.6 12.2 1.32 1.36 2.72 2.64 4.12 3.91h3c1.23-1.43 2.45-2.87 3.62-4.35 2.16-2.57 4.78-4.54 7.38-6.65 1.68-1.66 3.34-3.33 5-5 1.71-1.65 3.41-3.3 5.12-4.94 1.43-1.4 2.86-2.79 4.29-4.19 0.98-0.96 1.97-1.92 2.97-2.87 1.45-1.39 2.87-2.79 4.3-4.19 0.86-0.83 1.71-1.66 2.59-2.51 1.94-2.09 1.94-2.09 1.72-4.36-1.21-2.37-2.62-3.95-4.51-5.83-0.71-0.71-1.42-1.42-2.16-2.15s-1.49-1.46-2.26-2.21c-0.74-0.75-1.48-1.49-2.24-2.26-3.35-3.92-3.35-3.92-7.82-5.49-0.27-0.6-0.53-1.2-0.81-1.81-1.19-2.19-2.28-3.6-4.19-5.19h-2l-1-3c-1.56-1.59-1.56-1.59-3.51-3.14-4.68-3.98-8.98-8.26-13.3-12.6-1.65-1.66-3.3-3.32-4.96-4.99-2.57-2.6-5.15-5.2-7.72-7.81-2.5-2.53-5-5.05-7.51-7.57-0.77-0.79-1.55-1.58-2.34-2.39l-2.17-2.17c-0.63-0.64-1.26-1.28-1.91-1.93-1.49-1.58-1.49-1.58-3.59-1.36v-2c-1.28-1.3-1.28-1.3-3.06-2.69-4.21-3.58-8.11-7.39-12-11.3-0.64-0.64-1.28-1.29-1.94-1.95-2.67-2.69-5.34-5.39-8.02-8.09-1.97-1.99-3.94-3.97-5.92-5.96-0.58-0.6-1.17-1.2-1.78-1.81-2.92-2.94-5.89-5.75-9.03-8.44-4.81-4.16-9.27-8.67-13.7-13.2-1.53-1.56-3.07-3.11-4.61-4.66-4.38-4.39-8.74-8.8-13.1-13.2-2.68-2.71-5.37-5.42-8.06-8.12l-3.06-3.09c-1.41-1.43-2.83-2.86-4.25-4.29-1.21-1.22-1.21-1.22-2.45-2.46-1.78-1.96-1.78-1.96-3.97-1.74l-1-3c-1.55-1.57-1.55-1.57-3.48-3.11-4.85-4.12-9.29-8.58-13.8-13.1-1.74-1.76-3.48-3.51-5.23-5.27-2.72-2.74-5.44-5.49-8.15-8.24-2.64-2.67-5.29-5.33-7.93-7.99-0.82-0.84-1.64-1.67-2.48-2.52-0.75-0.76-1.51-1.52-2.29-2.3-0.66-0.67-1.33-1.34-2.01-2.04-1.55-1.65-1.55-1.65-3.67-1.43v-2c-1.33-1.35-1.33-1.35-3.15-2.78-3.94-3.35-7.61-6.9-11.2-10.6-0.58-0.58-1.15-1.16-1.74-1.75-2.39-2.41-4.77-4.82-7.16-7.23-1.76-1.78-3.53-3.56-5.29-5.34-0.53-0.53-1.05-1.06-1.59-1.61-2.77-2.78-5.59-5.43-8.57-7.98-5.12-4.43-9.83-9.25-14.6-14.1-0.97-0.98-1.94-1.95-2.91-2.93-4.09-4.11-8.17-8.23-12.2-12.4-2.51-2.53-5.02-5.06-7.53-7.59-0.96-0.96-1.91-1.92-2.86-2.89-1.32-1.34-2.65-2.67-3.98-4-0.75-0.76-1.5-1.52-2.28-2.31-1.7-1.84-1.7-1.84-3.86-1.62l-1-3c-1.57-1.59-1.57-1.59-3.52-3.15-4.6-3.91-8.83-8.11-13.1-12.4-1.61-1.62-3.21-3.23-4.82-4.85-2.5-2.53-5.01-5.06-7.51-7.59-2.43-2.46-4.86-4.92-7.3-7.37-0.75-0.77-1.5-1.53-2.28-2.32-0.69-0.7-1.39-1.4-2.1-2.12-0.61-0.61-1.22-1.23-1.85-1.87-1.47-1.54-1.47-1.54-3.56-1.32l-1-3h-2c-0.49-1.49-0.49-1.49-1-3-1.51-1.53-1.51-1.53-3.41-3.04-5.31-4.5-10.1-9.44-15-14.4-1.78-1.81-3.57-3.62-5.37-5.43-0.78-0.79-1.56-1.59-2.36-2.41-4.71-4.45-13.6 7.99-17.3 11.7zm567 410c-1.01 0.4-1.01 0.4-2.05 0.81-7.71 3.12-15.1 6.91-22.4 10.8-1.33 0.67-2.66 1.34-4 2-0.34 2.94-0.34 2.94 1.27 4.34 0.93 0.73 0.93 0.73 1.88 1.48 4.02 3.37 7.7 6.96 11.4 10.7 0.87 0.88 0.87 0.88 1.76 1.78 2.43 2.46 4.85 4.93 7.26 7.4 1.78 1.82 3.57 3.63 5.36 5.44 0.54 0.56 1.08 1.12 1.63 1.7 2.96 2.97 5.44 4.95 9.48 6.16 0.25-0.62 0.5-1.24 0.75-1.88 1.5-2.55 2.65-2.83 5.25-4.12 1.6-1.32 1.6-1.32 3.09-2.87 0.57-0.58 1.14-1.16 1.74-1.75 0.6-0.62 1.21-1.24 1.84-1.88s1.26-1.28 1.92-1.94c2.01-2.04 4.03-4.08 6.04-6.12 2.02-2.05 4.04-4.09 6.06-6.14 1.26-1.27 2.51-2.54 3.77-3.82 4.32-4.37 4.32-4.37 6.54-5.48-1.04-3.31-2.14-4.09-5.17-5.93-1.33-0.66-2.67-1.31-4.01-1.95-0.71-0.34-1.42-0.68-2.16-1.03-18-9.36-18-9.36-37.2-7.65zm-70.5 50.6c-26.5 27.5-36.2 70.2-45 106 10.4 1.68 10.4 1.68 20.4 0 1.8-1.54 1.8-1.54 3.35-3.5 2.71-3.08 5.68-5.78 8.7-8.54 9.72-8.97 19-18.4 28.3-27.8 3.39-3.43 6.8-6.85 10.2-10.3 1.16-1.18 1.16-1.18 2.35-2.37 0.71-0.72 1.42-1.43 2.16-2.17 0.62-0.63 1.25-1.26 1.89-1.91 1.58-1.47 1.58-1.47 3.58-2.47v-2c0.62-0.29 1.24-0.58 1.88-0.88 2.26-1.06 2.26-1.06 4.12-3.12-0.33-3.3-1.6-4.98-3.94-7.25l-1.58-1.58c-1.42-1.38-1.42-1.38-3.48-1.17-0.49-1.49-0.49-1.49-1-3-1.49-1.51-1.49-1.51-3.38-3-3.47-2.95-6.7-6.03-9.89-9.28-0.91-0.92-1.81-1.85-2.75-2.8-1.41-1.44-2.82-2.88-4.22-4.33-1.38-1.42-2.76-2.83-4.15-4.24-0.82-0.84-1.63-1.67-2.47-2.53-2.05-2.14-2.05-2.14-5.14-1.82zm156 2.09c-0.96 0.97-1.91 1.94-2.85 2.91-0.51 0.52-1.02 1.04-1.54 1.57-1.64 1.66-3.26 3.32-4.88 4.99-2.13 2.17-4.26 4.34-6.39 6.51-0.77 0.78-0.77 0.78-1.56 1.58-3.45 3.49-7 6.77-10.7 9.95-2.15 1.84-4.15 3.82-6.14 5.84-1 1.02-1 1.02-2.03 2.06-0.48 0.49-0.97 0.99-1.47 1.5 4.96 6 10.2 11.8 16 17h2l1 3h2v2h2v2c1.51 1.53 1.51 1.53 3.49 3.11 4.5 3.83 8.64 7.94 12.8 12.2 1.55 1.56 3.1 3.13 4.64 4.69 2.41 2.44 4.81 4.88 7.21 7.32 2.34 2.38 4.68 4.75 7.03 7.11 0.71 0.74 1.43 1.47 2.16 2.23 0.68 0.67 1.35 1.35 2.05 2.05 0.59 0.6 1.17 1.19 1.78 1.81 4.51 3.66 9.08 3.78 14.7 3.64 0.69 0 1.38-0.01 2.09-0.02 1.7-0.03 3.4-0.06 5.09-0.1 1.06-3.18 0.99-3.86 0.14-6.94-0.32-1.18-0.32-1.18-0.65-2.39-0.24-0.86-0.48-1.71-0.73-2.6s-0.5-1.78-0.75-2.7c-0.8-2.89-1.62-5.79-2.45-8.68-0.27-0.98-0.55-1.97-0.84-2.98-7.86-27.8-16.9-53.6-34.7-76.7-0.52-0.78-1.05-1.56-1.59-2.37-0.47-0.54-0.93-1.08-1.41-1.63-3.15-0.33-3.15-0.33-5.41 2.09zm-79.2 77.2c-1.03 1.04-2.05 2.09-3.06 3.14-0.55 0.55-1.09 1.1-1.65 1.67-1.74 1.76-3.47 3.53-5.2 5.31-1.73 1.76-3.46 3.52-5.19 5.28-1.08 1.1-2.16 2.2-3.23 3.3-2.27 2.31-4.37 4.24-7.08 6.04v3h59c-1.86-3.73-3.39-5.65-6.28-8.55-0.84-0.84-1.68-1.69-2.55-2.56-0.88-0.87-1.76-1.74-2.67-2.64-0.88-0.89-1.76-1.78-2.67-2.69-1.26-1.26-1.26-1.26-2.55-2.54-0.77-0.77-1.54-1.55-2.34-2.34-1.76-1.9-1.76-1.9-3.94-1.68-0.49-1.49-0.49-1.49-1-3h-2l-2-4c-3.19-0.33-3.19-0.33-5.59 2.26zm-193 37.2c-0.66 0.67-1.32 1.34-2 2.03-0.76 0.76-1.51 1.52-2.29 2.3-0.81 0.83-1.62 1.65-2.45 2.51-0.84 0.84-1.67 1.68-2.53 2.55-2.67 2.69-5.34 5.4-8 8.11-2.67 2.7-5.34 5.4-8.01 8.1-1.66 1.68-3.33 3.36-4.98 5.05-0.76 0.76-1.51 1.52-2.28 2.31-0.66 0.67-1.32 1.34-2 2.04-1.67 1.56-1.67 1.56-3.67 2.56v2c-0.58 0.26-1.16 0.51-1.76 0.78-2.46 1.34-4.07 2.82-6.04 4.81-1.1 1.1-1.1 1.1-2.21 2.23-0.78 0.79-1.56 1.58-2.37 2.4-0.8 0.81-1.61 1.63-2.45 2.46-2.58 2.6-5.15 5.21-7.73 7.82s-5.16 5.21-7.74 7.82c-1.61 1.62-3.22 3.24-4.82 4.86-0.73 0.74-1.45 1.47-2.2 2.23-0.64 0.65-1.28 1.29-1.94 1.96-1.74 1.63-1.74 1.63-4.74 3.63v2c-1.48 0.5-1.48 0.5-3 1v2c-0.59 0.26-1.18 0.53-1.79 0.8-2.29 1.24-3.77 2.53-5.6 4.38-0.96 0.96-0.96 0.96-1.94 1.95-0.68 0.7-1.36 1.39-2.07 2.11s-1.42 1.43-2.16 2.17c-2.27 2.3-4.54 4.6-6.81 6.9-2.27 2.29-4.53 4.58-6.8 6.87-1.41 1.42-2.82 2.85-4.22 4.27-2.83 2.87-5.66 5.66-8.77 8.21-2.8 2.31-5.29 4.76-7.84 7.34-0.78 0.79-1.56 1.57-2.37 2.38-0.82 0.82-1.64 1.64-2.48 2.49-4.61 4.62-9.22 9.25-13.8 13.9-2.78 2.79-5.57 5.59-8.35 8.38-2.7 2.71-5.4 5.42-8.11 8.13-1.03 1.03-2.06 2.06-3.08 3.09-1.44 1.44-2.87 2.88-4.31 4.31-0.81 0.82-1.63 1.64-2.47 2.48-1.99 1.87-1.99 1.87-3.99 2.87v2c-0.99 0.33-1.98 0.66-3 1v2c-0.58 0.26-1.16 0.52-1.77 0.78-2.42 1.32-4 2.76-5.94 4.72-1.06 1.07-1.06 1.07-2.15 2.16-1.14 1.16-1.14 1.16-2.3 2.34-0.78 0.79-1.57 1.58-2.38 2.4-2.51 2.53-5.02 5.06-7.52 7.6-2.51 2.54-5.02 5.07-7.53 7.6-1.56 1.58-3.12 3.15-4.68 4.74-1.06 1.07-1.06 1.07-2.15 2.16-0.62 0.63-1.24 1.26-1.88 1.91-1.7 1.59-1.7 1.59-4.7 3.59v2c-0.58 0.26-1.16 0.51-1.76 0.78-2.45 1.33-4.05 2.8-6.01 4.78-0.72 0.73-1.45 1.46-2.19 2.21-0.78 0.78-1.55 1.57-2.35 2.38s-1.6 1.62-2.43 2.45c-2.57 2.59-5.13 5.18-7.7 7.78-2.55 2.58-5.11 5.17-7.68 7.75-1.59 1.61-3.18 3.21-4.77 4.83-3.56 3.58-7.08 6.98-11.1 10-2.27 2.02-2.27 2.02-4 4v2c-0.85 0.37-0.85 0.37-1.72 0.74-2.69 1.49-4.49 3.24-6.64 5.42-0.86 0.85-1.71 1.71-2.59 2.6-1.38 1.39-1.38 1.39-2.78 2.81-0.96 0.97-1.92 1.94-2.89 2.9-2.53 2.55-5.06 5.1-7.58 7.66-4.03 4.07-8.06 8.13-12.1 12.2-1.4 1.41-2.79 2.82-4.19 4.23-4.38 4.42-8.83 8.67-13.6 12.7-3.67 3.26-7.09 6.77-10.5 10.3-0.79 0.8-1.58 1.59-2.4 2.41-2.5 2.52-5.01 5.04-7.51 7.56-3.3 3.33-6.6 6.65-9.9 9.97-1.12 1.13-1.12 1.13-2.26 2.28-4.05 4.07-8.19 7.96-12.6 11.7-2.77 2.4-5.32 4.84-7.79 7.55-0.34 2.96-0.34 2.96 1.35 4.42 0.64 0.51 1.28 1.03 1.94 1.55 3.59 3.01 6.95 6.19 10.2 9.53 0.47 0.48 0.95 0.96 1.44 1.46 1.98 2 3.95 4.01 5.92 6.03 1.46 1.48 2.92 2.96 4.39 4.44 0.86 0.88 1.72 1.76 2.6 2.66 1.89 2.13 1.89 2.13 4.12 1.91v2c1.45 1.62 1.45 1.62 3.32 3.19 0.92 0.82 0.92 0.82 1.86 1.67 0.9 0.56 0.9 0.56 1.82 1.14 3.36-1.12 4.69-2.37 7-5v-2c0.99-0.33 1.98-0.66 3-1 1.69-1.98 3.36-3.98 5-6l2-1v-2c0.58-0.26 1.17-0.51 1.76-0.78 2.46-1.34 4.08-2.82 6.05-4.81 0.73-0.74 1.46-1.47 2.21-2.23 0.78-0.79 1.56-1.58 2.36-2.4 1.21-1.22 1.21-1.22 2.45-2.46 2.58-2.6 5.16-5.21 7.73-7.82 2.58-2.61 5.17-5.21 7.75-7.82 1.61-1.62 3.21-3.24 4.81-4.86 1.1-1.1 1.1-1.1 2.21-2.23 0.96-0.97 0.96-0.97 1.93-1.96 1.74-1.63 1.74-1.63 4.74-3.63v-2c0.57-0.24 1.13-0.48 1.71-0.72 2.8-1.57 4.7-3.46 6.97-5.74 1.38-1.39 1.38-1.39 2.79-2.8 1-1.02 1.99-2.03 2.99-3.04 1.04-1.04 2.07-2.08 3.1-3.12 2.73-2.73 5.44-5.47 8.15-8.21 4.34-4.38 8.68-8.75 13-13.1 1.51-1.52 3.01-3.04 4.52-4.57 7.67-7.72 7.67-7.72 11.4-10.7 0.77-0.65 1.54-1.29 2.33-1.96v-2c0.58-0.25 1.16-0.51 1.76-0.77 2.5-1.37 4.15-2.9 6.15-4.93l2.29-2.29c0.8-0.82 1.61-1.64 2.44-2.49 0.84-0.85 1.69-1.69 2.55-2.56 2.69-2.71 5.38-5.43 8.06-8.15 2.67-2.7 5.35-5.39 8.02-8.09 1.66-1.67 3.32-3.35 4.98-5.03 4.13-4.16 8.34-8.12 12.8-11.9 3.59-3.18 6.93-6.61 10.3-10 0.76-0.76 1.52-1.52 2.3-2.31 2.4-2.41 4.79-4.82 7.19-7.23 3.17-3.2 6.34-6.39 9.51-9.58 1.09-1.1 1.09-1.1 2.2-2.23 0.68-0.67 1.35-1.35 2.05-2.05 0.59-0.6 1.18-1.19 1.79-1.81 1.63-1.52 1.63-1.52 4.63-3.52v-2c0.99-0.33 1.98-0.66 3-1 1.73-1.63 3.36-3.29 5-5 1.38-1.39 2.76-2.78 4.15-4.16 0.78-0.78 1.56-1.57 2.36-2.38 3.54-3.55 7.09-7.1 10.6-10.6 1.87-1.87 3.73-3.74 5.59-5.62 2.7-2.71 5.41-5.42 8.11-8.13 0.83-0.83 1.66-1.66 2.51-2.52 3.31-3.31 6.57-6.55 10.2-9.48 0.8-0.68 1.6-1.36 2.42-2.06v-2c0.56-0.24 1.13-0.47 1.71-0.72 2.83-1.58 4.75-3.5 7.03-5.81 0.46-0.45 0.91-0.91 1.38-1.38 1.5-1.51 2.99-3.02 4.48-4.53 1.05-1.05 2.09-2.1 3.13-3.15 2.75-2.75 5.48-5.51 8.22-8.28 4.38-4.42 8.77-8.84 13.2-13.3 1.53-1.55 3.06-3.09 4.59-4.64 0.93-0.94 1.86-1.87 2.81-2.83 0.82-0.83 1.64-1.66 2.48-2.51 2-1.89 2-1.89 4-2.89v-2c0.58-0.25 1.16-0.51 1.76-0.77 2.5-1.37 4.15-2.9 6.15-4.93l2.29-2.29c0.8-0.82 1.61-1.64 2.44-2.49 0.84-0.85 1.69-1.69 2.55-2.56 2.69-2.71 5.38-5.43 8.06-8.15 2.67-2.7 5.35-5.39 8.02-8.09 1.66-1.67 3.32-3.35 4.98-5.03 4.17-4.21 8.43-8.22 12.9-12.1 2.74-2.4 5.3-4.96 7.86-7.54 0.53-0.53 1.05-1.05 1.58-1.59 1.64-1.64 3.26-3.28 4.89-4.92 1.12-1.12 2.24-2.25 3.36-3.37 2.72-2.73 5.43-5.46 8.14-8.19-4.29-5.12-8.77-9.95-13.5-14.7-0.69-0.7-1.39-1.4-2.1-2.13-1.46-1.46-2.92-2.93-4.38-4.39-2.24-2.25-4.46-4.51-6.69-6.77-1.42-1.42-2.84-2.85-4.27-4.28-0.66-0.67-1.33-1.35-2.01-2.05-0.62-0.62-1.24-1.24-1.88-1.87-0.55-0.55-1.09-1.1-1.65-1.66-2.46-1.87-3.99-1.61-6.33 0.27zm407 19.6c-0.94 0.99-1.87 1.98-2.8 2.98-1.19 1.2-2.39 2.4-3.59 3.6-0.66 0.66-1.33 1.32-2.01 2-9.13 9.13-18.3 18.3-27.4 27.4 4.86 5.77 9.98 11.2 15.3 16.5 1.45 1.45 2.89 2.92 4.33 4.38 0.92 0.91 1.83 1.83 2.77 2.77 0.84 0.84 1.67 1.67 2.52 2.53 1.85 2.04 1.85 2.04 4.06 1.82v2c1.47 1.49 1.47 1.49 3.41 3.04 4.95 4.21 9.49 8.77 14 13.4l5.37 5.4 8.37 8.46c2.71 2.74 5.42 5.47 8.14 8.21 0.84 0.85 1.68 1.7 2.54 2.58 0.78 0.78 1.55 1.56 2.35 2.36 0.68 0.69 1.36 1.38 2.07 2.09 1.58 1.69 1.58 1.69 3.7 1.47l1 3c1.36 1.38 1.36 1.38 3.14 2.75 4.19 3.56 8.05 7.37 11.9 11.3 0.63 0.63 1.26 1.27 1.91 1.93 2.65 2.67 5.29 5.35 7.93 8.03 1.94 1.98 3.89 3.95 5.84 5.91 0.6 0.61 1.2 1.23 1.82 1.86 1.44 1.45 2.94 2.85 4.44 4.24h2l1 3c1.88 2.21 1.88 2.21 4 4h2l1 3c1.57 1.59 1.57 1.59 3.51 3.14 4.68 3.97 8.99 8.25 13.3 12.6 1.21 1.23 1.21 1.23 2.46 2.48 3.44 3.46 6.88 6.92 10.3 10.4 2.53 2.55 5.06 5.09 7.59 7.63 0.76 0.77 1.53 1.55 2.32 2.34 4.04 4.06 8.18 7.92 12.5 11.7 3.53 3.13 6.82 6.49 10.1 9.84 1.12 1.13 1.12 1.13 2.26 2.28 3.16 3.17 6.31 6.35 9.46 9.53 2.32 2.34 4.64 4.67 6.97 7.01 0.7 0.7 1.39 1.41 2.12 2.14 3.23 3.25 6.49 6.39 9.96 9.38 4.68 4.03 8.98 8.39 13.3 12.8 1.75 1.76 3.49 3.51 5.23 5.27 2.72 2.74 5.44 5.49 8.16 8.24 2.64 2.67 5.28 5.33 7.93 7.99 0.81 0.84 1.63 1.67 2.47 2.52 0.76 0.76 1.51 1.52 2.29 2.3 1 1.01 1 1.01 2.02 2.04 1.55 1.65 1.55 1.65 3.66 1.43l1 3c1.52 1.54 1.52 1.54 3.43 3.06 5.19 4.4 9.92 9.19 14.7 14 0.95 0.95 1.9 1.91 2.84 2.86 3.99 4.02 7.98 8.04 12 12.1 2.45 2.48 4.9 4.95 7.36 7.42 1.39 1.39 2.77 2.79 4.15 4.19 0.83 0.84 1.66 1.68 2.53 2.54 0.73 0.75 1.47 1.49 2.22 2.25 1.67 1.81 1.67 1.81 3.82 1.59l1 3c1.62 1.64 1.62 1.64 3.61 3.23 4.1 3.49 7.9 7.18 11.7 11 1.33 1.34 2.66 2.69 3.99 4.03 2.07 2.09 4.14 4.19 6.2 6.29 2.02 2.04 4.04 4.08 6.06 6.11 0.93 0.95 0.93 0.95 1.88 1.93 1.49 1.5 3.04 2.95 4.59 4.39h2v2c1.46 1.47 1.46 1.47 3.4 3 3.3 2.81 6.36 5.74 9.36 8.88 1.22 1.25 1.22 1.25 2.46 2.54 1.67 1.74 3.33 3.49 4.98 5.26 0.8 0.82 1.61 1.65 2.44 2.51 1.08 1.13 1.08 1.13 2.18 2.29 2.12 1.83 2.12 1.83 4.96 1.26 0.73-0.25 1.47-0.49 2.22-0.74v-2c0.59-0.26 1.18-0.53 1.79-0.8 2.29-1.24 3.78-2.52 5.6-4.36 0.64-0.65 1.28-1.29 1.94-1.95 0.68-0.69 1.36-1.37 2.06-2.09 0.71-0.7 1.41-1.41 2.14-2.14 2.24-2.26 4.48-4.52 6.72-6.78 1.53-1.54 3.05-3.07 4.57-4.6 3.73-3.76 7.46-7.52 11.2-11.3-1.31-2.89-2.71-4.96-4.95-7.21-0.89-0.9-0.89-0.9-1.8-1.82-0.64-0.63-1.28-1.27-1.93-1.92l-2-2c-1.39-1.39-2.78-2.78-4.18-4.17-2.14-2.13-4.27-4.27-6.4-6.41l-4.05-4.05c-0.64-0.64-1.28-1.29-1.94-1.95-2.85-3.31-2.85-3.31-6.75-4.47l-1-3c-1.6-1.63-1.6-1.63-3.59-3.22-4.18-3.55-8.06-7.32-11.9-11.2-1.02-1.02-1.02-1.02-2.06-2.07-2.87-2.89-5.74-5.78-8.6-8.67-2.11-2.13-4.22-4.26-6.34-6.38-0.63-0.64-1.26-1.29-1.92-1.95-3.05-3.07-6.14-6.02-9.43-8.84-4.93-4.26-9.47-8.89-14-13.5-1.4-1.41-2.79-2.82-4.19-4.23-3.42-3.44-6.84-6.89-10.2-10.3-1.93-1.95-3.86-3.9-5.8-5.84-1.81-1.83-3.63-3.66-5.43-5.5-0.82-0.81-1.63-1.63-2.47-2.48-1.08-1.08-1.08-1.08-2.18-2.19-1.64-1.77-1.64-1.77-3.78-1.55v-2c-1.45-1.47-1.45-1.47-3.38-3.01-5.11-4.35-9.8-9.07-14.5-13.8-1.42-1.42-2.83-2.84-4.24-4.26-2.95-2.96-5.9-5.93-8.84-8.89-2.44-2.46-4.87-4.91-7.31-7.35-1.82-1.83-3.64-3.66-5.45-5.49-4.32-4.34-8.7-8.49-13.4-12.5-3.36-2.97-6.48-6.18-9.62-9.37-1.42-1.44-2.84-2.87-4.27-4.31-2.21-2.24-4.42-4.48-6.63-6.72-2.16-2.18-4.31-4.36-6.47-6.54-0.67-0.67-1.33-1.35-2.02-2.05-0.61-0.62-1.23-1.24-1.86-1.87-0.81-0.82-0.81-0.82-1.64-1.66-1.35-1.38-1.35-1.38-3.4-1.17v-2c-1.49-1.52-1.49-1.52-3.46-3.09-4.62-3.93-8.87-8.13-13.1-12.4-0.79-0.8-1.58-1.59-2.4-2.41-3.35-3.37-6.69-6.74-10-10.1-2.45-2.47-4.91-4.95-7.37-7.42-0.75-0.75-1.49-1.5-2.26-2.28-3.29-3.3-6.6-6.52-10.2-9.56-4.99-4.3-9.6-8.99-14.2-13.7-1.65-1.66-3.3-3.32-4.95-4.97-4.1-4.11-8.19-8.23-12.3-12.4-3.47-3.49-6.94-6.97-10.4-10.5-1.61-1.62-3.22-3.24-4.83-4.86-4.77-4.79-9.58-9.46-14.7-13.9-2.78-2.43-5.36-5.04-7.94-7.68-1.1-1.12-2.21-2.24-3.31-3.35-1.71-1.73-3.41-3.47-5.11-5.2-1.67-1.7-3.34-3.39-5.01-5.08-0.52-0.52-1.03-1.05-1.55-1.59-1.24-1.25-2.54-2.44-3.84-3.63h-2c-0.49-1.49-0.49-1.49-1-3-1.53-1.55-1.53-1.55-3.45-3.07-6.03-5.11-11.4-10.8-16.9-16.5-0.81-0.82-1.62-1.65-2.46-2.5-0.73-0.75-1.46-1.5-2.21-2.28-3-2.5-4.33-2.2-7.16 0.39zm-281 23c1.53 3.2 3.11 5.36 5.64 7.86 0.72 0.73 1.44 1.45 2.19 2.19 1.14 1.12 1.14 1.12 2.3 2.26 1.1 1.1 1.1 1.1 2.22 2.23 3.39 3.35 6.8 6.63 10.4 9.73 5.31 4.58 10.3 9.51 15.2 14.4 1.12 1.11 2.25 2.22 3.37 3.31 16.2 15.8 16.2 15.8 16.8 28.2-0.54 11.9-7.56 19.4-15.6 27.4-1.48 1.31-1.48 1.31-3.48 2.31v2h-2v2c-0.57 0.25-1.15 0.5-1.74 0.76-2.59 1.42-4.3 3.05-6.38 5.15-0.8 0.81-1.6 1.61-2.43 2.44-0.86 0.87-1.71 1.74-2.6 2.64-1.33 1.34-1.33 1.34-2.69 2.71-2.37 2.38-4.73 4.77-7.09 7.15-3.31 3.35-6.63 6.7-9.95 10-1.77 1.78-3.53 3.56-5.29 5.34-3.37 3.4-6.68 6.74-10.4 9.73-0.79 0.67-1.59 1.35-2.41 2.04v2c-0.58 0.26-1.16 0.51-1.76 0.78-2.46 1.34-4.07 2.82-6.04 4.81-1.1 1.1-1.1 1.1-2.21 2.23-1.17 1.19-1.17 1.19-2.37 2.4-0.8 0.81-1.61 1.63-2.45 2.46-2.58 2.6-5.15 5.21-7.73 7.82s-5.16 5.21-7.74 7.82c-1.61 1.62-3.22 3.24-4.82 4.86-1.09 1.1-1.09 1.1-2.2 2.23-0.64 0.65-1.28 1.29-1.94 1.96-1.74 1.63-1.74 1.63-4.74 3.63v2c-0.99 0.33-1.98 0.66-3 1v2c-0.59 0.27-1.18 0.53-1.79 0.81-2.26 1.22-3.73 2.47-5.54 4.29-0.62 0.63-1.25 1.26-1.9 1.9-0.66 0.68-1.33 1.36-2.02 2.05-0.69 0.7-1.39 1.4-2.1 2.12-2.22 2.23-4.44 4.47-6.65 6.71-1.49 1.49-2.98 2.99-4.47 4.49-3.29 3.31-6.58 6.63-9.86 9.95-1.22 1.23-2.48 2.41-3.77 3.57-2.16 2.4-2.77 4.05-3.56 7.16-0.26 1.01-0.53 2.01-0.8 3.05l-0.83 3.32c-0.44 1.73-0.44 1.73-0.9 3.49-0.95 3.69-1.88 7.39-2.81 11.1-0.59 2.34-1.19 4.68-1.79 7.02-1.71 6.76-3.4 13.5-5.09 20.3-0.68 2.74-1.36 5.48-2.05 8.23-3.79 15.2-7.55 30.4-11.3 45.6-0.17 0.7-0.35 1.41-0.53 2.14-0.87 3.57-1.75 7.14-2.63 10.7-0.17 0.71-0.35 1.42-0.53 2.15-0.35 1.44-0.7 2.88-1.06 4.32-5.95 24.2-12 48.4-18.2 72.6-0.88 3.46-1.76 6.93-2.64 10.4-0.26 1.02-0.26 1.02-0.53 2.07-5.65 22.2-11.2 44.5-16.7 66.7-2.17 8.68-4.35 17.4-6.53 26-1.15 4.58-2.3 9.15-3.45 13.7-0.63 2.48-1.25 4.97-1.88 7.45-0.86 3.4-1.71 6.8-2.57 10.2-0.25 1-0.51 2.01-0.77 3.05-0.23 0.91-0.46 1.83-0.7 2.77-0.3 1.2-0.3 1.2-0.6 2.41-0.53 2.2-0.53 2.2-0.43 5.06 6.41 0.74 12.7 1.14 19.2 1.12 1.3 0 1.3 0 2.63 0.01 2.9 0 5.79-0.01 8.69-0.01h6.31c5.77 0.01 11.5 0 17.3 0 6.23-0.01 12.4-0.01 18.7-0.01h32.4c11.3-0.01 22.6-0.01 33.9-0.02h2.13 10.7c25.3 0 50.6-0.01 75.9-0.01l73.7-0.03h2.3 22.8c15.5 0 31 0 46.5-0.01h2.16c47.6-0.01 95.1-0.02 143-0.04-0.15-1.43-0.3-2.86-0.46-4.28-0.12-1.2-0.12-1.2-0.25-2.41-0.39-3.11-1.04-6.1-1.76-9.15-0.15-0.64-0.3-1.29-0.46-1.95-0.51-2.2-1.04-4.39-1.57-6.59-0.28-1.18-0.28-1.18-0.57-2.39-4.49-18.8-9.31-37.6-14.1-56.4-5.4-21.2-10.7-42.3-15.9-63.5-1.34-5.45-2.67-10.9-4.01-16.4-0.17-0.67-0.33-1.34-0.5-2.03-4.18-17-8.43-34-12.7-51-0.67-2.68-1.34-5.36-2.02-8.04-0.17-0.69-0.34-1.38-0.52-2.09-2.76-11-5.49-22-8.21-33.1-2.35-9.52-4.7-19-7.06-28.6-1.48-5.96-2.95-11.9-4.42-17.9-1.39-5.66-2.78-11.3-4.19-17-0.52-2.1-1.04-4.21-1.56-6.32-0.71-2.92-1.43-5.83-2.16-8.74-0.2-0.85-0.41-1.7-0.62-2.57-1.79-7.06-4.99-11.9-10.2-17.1l-2.47-2.47c-0.87-0.87-1.74-1.74-2.64-2.63-1.37-1.36-1.37-1.36-2.75-2.75l-5.76-5.73c-2.45-2.43-4.88-4.86-7.32-7.3-2.35-2.34-4.7-4.69-7.05-7.03l-2.62-2.62c-4.31-4.27-8.69-8.38-13.3-12.3-3.36-2.98-6.48-6.18-9.63-9.38-1.42-1.44-2.84-2.87-4.27-4.31-2.21-2.24-4.42-4.48-6.63-6.72-2.16-2.18-4.31-4.36-6.47-6.54-0.67-0.67-1.33-1.35-2.02-2.05-0.61-0.62-1.23-1.24-1.86-1.87-0.54-0.55-1.08-1.1-1.64-1.66-1.35-1.38-1.35-1.38-3.4-1.17l-2-4h-2l-1-3c-1.59-1.62-1.59-1.62-3.56-3.2-4.35-3.69-8.43-7.59-12.5-11.6-0.73-0.73-1.46-1.45-2.22-2.2l-4.59-4.56-4.68-4.62c-2.29-2.24-4.56-4.49-6.82-6.75-0.7-0.67-1.39-1.35-2.1-2.05-6.31-6.33-10.9-13-11.9-22.1 0.69-8.69 3.96-16 10.3-21.9 1.12-0.95 2.24-1.89 3.38-2.81 0.86-0.72 1.73-1.45 2.62-2.19v-2c0.86-0.37 0.86-0.37 1.74-0.75 2.6-1.43 4.33-3.08 6.42-5.18 1.21-1.21 1.21-1.21 2.44-2.45 1.3-1.31 1.3-1.31 2.62-2.64 0.9-0.9 1.79-1.8 2.71-2.72 2.38-2.39 4.75-4.78 7.12-7.17 2.4-2.42 4.81-4.84 7.22-7.26 4.25-4.27 8.49-8.53 12.7-12.8 2-2.01 4.01-4.02 6.01-6.02-1.35-3.13-2.77-4.89-5.44-7-2.04-1.63-3.44-2.8-4.77-5.07-1.68-2.21-1.68-2.21-4.61-2.42-1.73 0-1.73 0-3.5 0.01-0.64 0-1.29-0.01-1.95-0.01-2.16-0.01-4.32 0.01-6.48 0.04-1.55 0-3.09 0-4.64-0.01-4.21 0-8.41 0.03-12.6 0.05-4.4 0.03-8.79 0.03-13.2 0.04-8.32 0.01-16.6 0.04-25 0.08-9.47 0.05-18.9 0.07-28.4 0.09-19.5 0.04-39 0.11-58.4 0.2zm-47.7 33.4c-0.9 0.93-0.9 0.93-1.82 1.89-0.66 0.67-1.32 1.34-2 2.03-0.68 0.71-1.36 1.43-2.06 2.16-1.35 1.39-2.71 2.79-4.07 4.18-0.6 0.62-1.19 1.25-1.81 1.89-1.56 1.49-1.56 1.49-3.56 2.49v2c-0.57 0.25-1.15 0.5-1.74 0.75-2.6 1.44-4.34 3.09-6.43 5.21-1.21 1.22-1.21 1.22-2.45 2.47-0.87 0.88-1.74 1.76-2.63 2.66-0.9 0.91-1.8 1.81-2.72 2.74-2.38 2.39-4.76 4.79-7.13 7.2-3.35 3.38-6.7 6.76-10.1 10.1-1.79 1.8-3.57 3.6-5.35 5.4-0.81 0.82-1.61 1.63-2.45 2.47-1.06 1.08-1.06 1.08-2.15 2.18-1.89 1.78-1.89 1.78-4.89 3.78v2c-0.87 0.39-0.87 0.39-1.77 0.79-2.4 1.3-3.96 2.71-5.88 4.65-0.69 0.7-1.39 1.4-2.11 2.12-0.74 0.76-1.49 1.52-2.26 2.3s-1.55 1.56-2.35 2.37c-2.49 2.5-4.96 5.01-7.44 7.52-2.47 2.49-4.94 4.99-7.41 7.48-1.53 1.55-3.07 3.1-4.6 4.65-3.29 3.33-6.6 6.53-10.2 9.52-0.99 0.86-1.97 1.72-2.98 2.6v2c-0.58 0.25-1.15 0.5-1.75 0.76-2.53 1.4-4.21 2.97-6.25 5.03-1.16 1.16-1.16 1.16-2.34 2.36-0.83 0.84-1.66 1.68-2.52 2.55s-1.72 1.74-2.61 2.63c-2.77 2.78-5.52 5.57-8.28 8.36-2.74 2.77-5.48 5.54-8.23 8.3-1.71 1.72-3.41 3.44-5.12 5.17-3.51 3.55-7.04 7.02-10.8 10.3-4.61 3.97-8.87 8.26-13.2 12.6-1.46 1.48-2.93 2.96-4.4 4.43-3.11 3.12-6.21 6.25-9.32 9.37-3.62 3.65-7.24 7.29-10.9 10.9-1.44 1.46-2.88 2.91-4.32 4.36-0.88 0.88-1.75 1.76-2.65 2.66-0.77 0.78-1.54 1.55-2.33 2.35-2.02 1.9-2.02 1.9-5.02 3.9v2c-0.58 0.26-1.17 0.52-1.78 0.79-2.35 1.28-3.89 2.65-5.77 4.55-0.68 0.69-1.36 1.37-2.06 2.07-1.08 1.1-1.08 1.1-2.19 2.23-0.75 0.76-1.51 1.52-2.28 2.3-2.42 2.43-4.82 4.87-7.23 7.31-2.4 2.42-4.79 4.85-7.19 7.26-1.5 1.51-2.98 3.02-4.47 4.53-3.24 3.27-6.49 6.4-10 9.35-0.99 0.86-1.97 1.72-2.99 2.61v2c-0.87 0.39-0.87 0.39-1.76 0.78-2.44 1.33-4.04 2.79-5.99 4.76-0.72 0.73-1.45 1.45-2.19 2.2-1.15 1.17-1.15 1.17-2.33 2.37-0.8 0.81-1.6 1.62-2.43 2.45-2.56 2.58-5.12 5.16-7.67 7.75-2.55 2.58-5.1 5.15-7.65 7.73-1.59 1.6-3.18 3.2-4.76 4.8-3.15 3.18-6.26 6.27-9.75 9.07-0.82 0.69-1.63 1.38-2.47 2.09v2c-0.57 0.24-1.13 0.48-1.72 0.73-2.72 1.51-4.55 3.31-6.74 5.52-0.87 0.88-1.75 1.75-2.65 2.66-0.94 0.96-1.89 1.92-2.84 2.88-0.98 0.99-1.97 1.98-2.95 2.97-2.59 2.61-5.18 5.22-7.77 7.83-4.12 4.16-8.24 8.32-12.4 12.5-1.43 1.44-2.86 2.88-4.28 4.33-4.51 4.53-9.06 8.91-13.9 13.1-2.51 2.2-4.86 4.54-7.2 6.92-0.7 0.71-0.7 0.71-1.42 1.43-1.46 1.47-2.92 2.95-4.38 4.43-1.94 1.97-3.88 3.93-5.83 5.89-0.85 0.86-1.7 1.72-2.57 2.61-2.03 1.94-4.06 3.63-6.35 5.25 1.33 3.02 2.63 4.76 5.19 6.82 7.01 5.93 13.3 12.6 19.8 19.1 1.36 1.36 2.72 2.73 4.08 4.09 3.31 3.32 6.62 6.65 9.92 9.97 4.21-1.64 7-4.76 10.1-7.93 0.58-0.58 1.16-1.16 1.75-1.77 1.85-1.86 3.7-3.74 5.54-5.61 1.83-1.87 3.67-3.73 5.51-5.59 1.14-1.15 2.28-2.31 3.42-3.47 2.59-2.63 5.21-5.09 8.09-7.4 0.86-0.74 1.72-1.47 2.6-2.23v-2c0.86-0.37 0.86-0.37 1.73-0.74 2.68-1.49 4.48-3.24 6.64-5.42 0.85-0.85 1.71-1.71 2.59-2.6 1.37-1.39 1.37-1.39 2.78-2.81 0.96-0.97 1.92-1.94 2.88-2.9 2.53-2.55 5.06-5.1 7.59-7.66 4.02-4.07 8.06-8.13 12.1-12.2 1.4-1.41 2.8-2.82 4.19-4.23 4.36-4.39 8.78-8.61 13.5-12.6 4.16-3.7 8.02-7.7 11.9-11.6 1.4-1.4 2.8-2.81 4.2-4.21 2.43-2.44 4.85-4.88 7.28-7.33 2.92-2.94 5.84-5.87 8.76-8.81 1.82-1.82 3.63-3.65 5.44-5.47 0.81-0.82 1.63-1.64 2.47-2.48 1.07-1.09 1.07-1.09 2.17-2.19 1.78-1.67 1.78-1.67 3.78-2.67v-2c0.59-0.26 1.17-0.52 1.77-0.78 2.42-1.32 4.01-2.76 5.94-4.72l2.16-2.16c1.13-1.16 1.13-1.16 2.29-2.34 0.79-0.79 1.58-1.58 2.39-2.4 2.51-2.53 5.01-5.06 7.51-7.6 2.51-2.54 5.02-5.07 7.54-7.6 1.56-1.58 3.12-3.15 4.68-4.74 1.06-1.07 1.06-1.07 2.14-2.16 0.62-0.63 1.24-1.26 1.88-1.91 1.7-1.59 1.7-1.59 4.7-3.59v-2c0.57-0.24 1.14-0.49 1.73-0.74 2.69-1.49 4.5-3.26 6.67-5.45 0.86-0.86 1.72-1.73 2.61-2.62 1.38-1.4 1.38-1.4 2.8-2.83 0.96-0.98 1.93-1.95 2.9-2.92 2.54-2.56 5.08-5.12 7.61-7.68 4.05-4.1 8.11-8.18 12.2-12.3 1.41-1.42 2.82-2.84 4.23-4.27 7.17-7.22 7.17-7.22 10.9-10.2 1.18-0.99 1.18-0.99 2.37-2v-2c0.87-0.38 0.87-0.38 1.75-0.76 2.54-1.4 4.22-2.97 6.25-5.03 1.16-1.16 1.16-1.16 2.35-2.36 0.83-0.84 1.66-1.68 2.51-2.55 0.87-0.87 1.73-1.74 2.62-2.63 2.76-2.78 5.52-5.57 8.27-8.36 2.74-2.77 5.49-5.54 8.23-8.3 1.71-1.72 3.42-3.44 5.12-5.17 4.17-4.2 8.41-8.2 12.9-12.1 3.84-3.4 7.4-7.07 11-10.7 0.83-0.82 1.65-1.65 2.5-2.51 2.61-2.62 5.22-5.25 7.83-7.87 3.45-3.48 6.9-6.96 10.4-10.4 0.79-0.8 1.58-1.6 2.39-2.42 1.11-1.11 1.11-1.11 2.23-2.24 0.64-0.65 1.29-1.29 1.95-1.96 1.75-1.64 1.75-1.64 4.75-3.64v-2c0.57-0.25 1.14-0.49 1.73-0.74 2.66-1.48 4.44-3.2 6.58-5.35 0.84-0.85 1.68-1.69 2.55-2.56 1.35-1.38 1.35-1.38 2.73-2.78 0.94-0.95 1.89-1.89 2.83-2.84 2.48-2.5 4.96-5 7.44-7.51 3.96-4 7.92-7.99 11.9-12 1.37-1.39 2.75-2.78 4.12-4.17 7-7.06 7-7.06 10.8-10.1 0.79-0.66 1.57-1.33 2.38-2.01v-2c0.56-0.23 1.12-0.45 1.69-0.69 3.03-1.72 5.09-3.64 7.31-6.31-0.47-4.55-3.64-7.03-6.76-10.1-0.87-0.87-0.87-0.87-1.76-1.75-1.23-1.23-2.46-2.45-3.7-3.67-1.88-1.84-3.75-3.7-5.61-5.56-1.21-1.19-2.41-2.39-3.61-3.58-0.55-0.55-1.11-1.09-1.67-1.66-3.34-3.27-6.77-6.35-10.4-9.31-1.5-1.38-1.5-1.38-3.5-4.38-2.97-0.31-2.97-0.31-4.68 1.36zm251 20.1c-1.13 1.13-2.25 2.27-3.37 3.42-0.6 0.6-1.2 1.21-1.81 1.83-1.93 1.95-3.85 3.9-5.77 5.85-2.51 2.55-5.02 5.09-7.54 7.63-0.6 0.61-1.21 1.22-1.83 1.84-3.73 3.74-7.52 7.35-11.6 10.8-1.57 1.3-1.57 1.3-3.44 3.22 0.33 3.32 1.54 4.86 3.97 7.04 0.63 0.57 1.25 1.14 1.9 1.73 0.69 0.62 1.37 1.23 2.08 1.86 6.14 5.62 12.1 11.4 18 17.3 0.74 0.74 1.47 1.49 2.23 2.25 3.02 3.05 6.03 6.09 9.04 9.15 2.24 2.27 4.49 4.53 6.73 6.79 0.69 0.7 1.37 1.39 2.07 2.11 0.63 0.63 1.26 1.27 1.91 1.92 0.55 0.56 1.1 1.11 1.67 1.69 1.37 1.4 1.37 1.4 3.42 1.19v2c1.5 1.52 1.5 1.52 3.47 3.09 4.62 3.93 8.86 8.15 13.1 12.5 1.6 1.62 3.21 3.23 4.81 4.85 2.51 2.53 5.01 5.06 7.51 7.59 2.43 2.46 4.87 4.92 7.3 7.37 0.76 0.77 1.51 1.53 2.28 2.32 0.7 0.7 1.39 1.4 2.11 2.12 0.61 0.61 1.22 1.23 1.85 1.87 1.47 1.54 1.47 1.54 3.55 1.32l2 4h2l1 3c1.36 1.38 1.36 1.38 3.14 2.75 4.19 3.56 8.05 7.37 11.9 11.3 0.63 0.63 1.26 1.27 1.91 1.93 2.65 2.67 5.29 5.35 7.93 8.03 1.94 1.98 3.89 3.95 5.84 5.91 0.9 0.92 0.9 0.92 1.82 1.86 1.44 1.45 2.94 2.85 4.44 4.24h2l1 3h2l1 3c1.55 1.57 1.55 1.57 3.49 3.11 4.85 4.12 9.29 8.58 13.8 13.1 1.75 1.76 3.49 3.51 5.23 5.27 2.72 2.74 5.44 5.49 8.16 8.24 2.64 2.67 5.28 5.33 7.93 7.99 0.81 0.84 1.63 1.67 2.47 2.52 0.76 0.76 1.51 1.52 2.29 2.3 0.67 0.67 1.33 1.34 2.02 2.04 1.55 1.65 1.55 1.65 3.66 1.43l1 3c1.54 1.56 1.54 1.56 3.46 3.09 5.01 4.25 9.61 8.87 14.2 13.5 1.35 1.36 1.35 1.36 2.73 2.75 3.35 3.36 6.69 6.72 10 10.1 3.29 3.31 6.57 6.61 9.87 9.92 0.85 0.86 1.7 1.72 2.58 2.6 4.25 4.27 8.57 8.36 13.1 12.3 3.61 3.2 6.95 6.65 10.3 10.1 1.56 1.57 3.12 3.14 4.68 4.72 2.43 2.45 4.86 4.91 7.29 7.37 2.36 2.39 4.72 4.78 7.09 7.16 0.73 0.74 1.46 1.49 2.21 2.25 0.68 0.68 1.35 1.36 2.05 2.06 0.89 0.9 0.89 0.9 1.8 1.82 1.44 1.5 1.44 1.5 3.51 1.28 0.26 0.59 0.52 1.19 0.78 1.8 1.34 2.41 2.65 3.64 4.77 5.37 4.83 4.1 9.25 8.54 13.7 13 1.75 1.76 3.49 3.51 5.23 5.27 2.72 2.74 5.44 5.49 8.16 8.24 2.64 2.67 5.28 5.33 7.93 7.99 0.81 0.84 1.63 1.67 2.47 2.52 0.76 0.76 1.51 1.52 2.29 2.3 1 1.01 1 1.01 2.02 2.04 1.55 1.65 1.55 1.65 3.66 1.43l1 3c1.62 1.64 1.62 1.64 3.62 3.25 4.04 3.43 7.79 7.05 11.5 10.8 0.96 0.97 0.96 0.97 1.94 1.95 2.02 2.03 4.03 4.07 6.05 6.1 2.66 2.7 5.33 5.39 8.01 8.08 0.6 0.6 1.2 1.21 1.81 1.84 3.53 3.55 7.16 6.82 11 9.96 5.43-4.41 10.3-9.25 15.2-14.2 2.63-2.67 5.26-5.19 8.19-7.54 0.86-0.73 1.72-1.46 2.6-2.22v-2c0.55-0.22 1.11-0.45 1.67-0.68 3.04-1.72 5.15-3.95 7.58-6.44 0.89-0.92 1.79-1.83 2.71-2.76 0.67-0.7 1.35-1.4 2.04-2.12-1.25-3.77-2.92-4.55-6-7-1.2-1.46-2.4-2.92-3.59-4.4-1.49-1.69-3.06-3.07-4.79-4.52-6.61-5.71-12.6-12-18.8-18.3-1.63-1.64-3.25-3.28-4.88-4.91-0.48-0.49-0.96-0.98-1.45-1.48-2.68-2.7-5.43-5.25-8.31-7.72-4.72-4.09-9.07-8.49-13.4-12.9-1.74-1.76-3.48-3.51-5.23-5.27-2.72-2.74-5.44-5.49-8.15-8.24-2.64-2.67-5.29-5.33-7.93-7.99-0.82-0.84-1.64-1.67-2.48-2.52-0.75-0.76-1.51-1.52-2.29-2.3-0.99-1.01-0.99-1.01-2.01-2.04-1.55-1.65-1.55-1.65-3.67-1.43l-1-3c-1.49-1.52-1.49-1.52-3.39-3.02-4.9-4.16-9.39-8.67-13.9-13.2-1.5-1.52-3.01-3.03-4.52-4.55-4.27-4.3-8.55-8.61-12.8-12.9-2.63-2.65-5.26-5.3-7.89-7.94-1-1.01-2-2.02-2.99-3.02-1.38-1.41-2.77-2.8-4.16-4.2-0.79-0.79-1.58-1.59-2.39-2.41-1.76-1.92-1.76-1.92-3.94-1.7l-1-3c-1.37-1.39-1.37-1.39-3.16-2.79-4.11-3.48-7.89-7.2-11.7-11-0.92-0.92-0.92-0.92-1.85-1.86-2.55-2.58-5.1-5.16-7.64-7.75-1.88-1.91-3.76-3.8-5.64-5.7-0.58-0.59-1.15-1.18-1.75-1.79-1.39-1.4-2.83-2.75-4.29-4.09h-2l-2-4h-2l-1-3c-1.57-1.59-1.57-1.59-3.52-3.15-4.6-3.91-8.83-8.11-13.1-12.4-1.61-1.62-3.21-3.23-4.82-4.85-2.5-2.53-5.01-5.06-7.51-7.59-2.43-2.46-4.86-4.92-7.3-7.37-0.75-0.77-1.5-1.53-2.28-2.32-0.69-0.7-1.39-1.4-2.1-2.12-0.61-0.61-1.22-1.23-1.85-1.87-1.47-1.54-1.47-1.54-3.56-1.32l-1-3c-1.54-1.56-1.54-1.56-3.47-3.1-4.93-4.19-9.45-8.73-14-13.3-1.79-1.8-3.57-3.6-5.36-5.4-2.8-2.82-5.59-5.64-8.38-8.46-2.7-2.74-5.42-5.47-8.13-8.21-0.84-0.85-1.68-1.7-2.55-2.58-0.77-0.78-1.55-1.56-2.35-2.36-1.02-1.03-1.02-1.03-2.06-2.09-1.58-1.69-1.58-1.69-3.71-1.47l-2-4h-2v-2c-1.28-1.3-1.28-1.3-3.06-2.69-4.21-3.58-8.11-7.39-12-11.3-0.64-0.64-1.28-1.29-1.94-1.95-2.67-2.69-5.34-5.39-8.02-8.09-1.97-1.99-3.94-3.97-5.92-5.96-0.58-0.6-1.17-1.2-1.78-1.81-2.96-2.98-5.97-5.83-9.15-8.57-4.61-3.98-8.88-8.26-13.2-12.6-0.83-0.84-1.67-1.68-2.53-2.54-3.54-3.56-7.08-7.12-10.6-10.7-2.6-2.62-5.2-5.23-7.8-7.84-0.78-0.8-1.57-1.59-2.38-2.41-7-7.14-7-7.14-14.6-13.6-2.36-0.23-2.36-0.23-4.67 2.46zm-345 587v134h160c0.5-39.1 0.5-39.1 1-79l105-1v80c28.2 0.21 28.2 0.21 56.4 0.4 11.5 0.08 23 0.16 34.5 0.25 8.37 0.06 16.8 0.12 25.1 0.18 4.43 0.02 8.87 0.06 13.3 0.09 4.18 0.03 8.35 0.06 12.5 0.09 1.53 0.01 3.07 0.02 4.6 0.03 2.09 0.02 4.18 0.03 6.27 0.04 1.17 0.01 2.34 0.02 3.54 0.03 2.7 0.08 2.7 0.08 4.73-1.11v-134h-427z" fill="#fff"/>
<path transform="translate(774,1199)" d="m0 0h53v78c-2.45 1.23-4.06 1.13-6.8 1.13-1 0-2 0.01-3.02 0.01-1.62 0-1.62 0-3.28-0.01-1.1 0-2.21 0-3.34 0.01-2.34 0-4.68-0.01-7.02-0.01-3.59 0-7.18 0-10.8 0.01-2.26 0-4.53-0.01-6.8-0.01-1.08 0-2.16 0.01-3.27 0.01-1 0-1.99-0.01-3.02-0.01h-2.67c-2-0.13-2-0.13-3-1.13-0.09-2.43-0.13-4.84-0.11-7.27v-2.31c0-2.53 0-5.05 0.01-7.58 0-1.75 0.01-3.49 0.01-5.24 0-4.61 0.01-9.22 0.02-13.8 0.01-5.52 0.02-11 0.02-16.6 0.01-8.4 0.03-16.8 0.05-25.2z" fill="#fff"/>
<path transform="translate(774,1039)" d="m0 0h52c1.03 4.11 1.13 7.77 1.09 12 0 0.82 0 1.64-0.01 2.48-0.07 12.4-0.34 24.8-0.58 37.2-0.05 2.56-0.1 5.12-0.14 7.69-0.12 6.2-0.24 12.4-0.36 18.6-2.46 1.23-4.06 1.12-6.82 1.11h-3.07c-1.61 0-1.61 0-3.24-0.01-0.98 0-1.96 0-2.98-0.01-3.67 0-7.34-0.01-11-0.03-8.21-0.02-16.4-0.04-24.9-0.06v-79z" fill="#fff"/>
</svg>
